<svg xmlns="http://www.w3.org/2000/svg" xmlns:xlink="http://www.w3.org/1999/xlink" width="720" zoomAndPan="magnify" viewBox="0 0 540 540.000001" height="720" preserveAspectRatio="xMidYMid meet" version="1.0"><defs><clipPath id="22b36e1ce1"><path d="M 54.398438 128.011719 L 485.601562 128.011719 L 485.601562 410.988281 L 54.398438 410.988281 Z M 54.398438 128.011719 " clip-rule="nonzero"/></clipPath></defs><path fill="#ffffff" d="M 463.339844 269.519531 C 463.339844 277.753906 460.214844 285.949219 453.925781 292.238281 L 366.910156 379.214844 C 354.367188 391.757812 334.054688 391.757812 321.511719 379.214844 C 315.566406 373.269531 312.519531 365.53125 312.214844 357.71875 L 312.214844 357.605469 C 312.175781 356.878906 312.175781 356.15625 312.214844 355.433594 L 312.214844 301.613281 L 108.753906 301.613281 C 91.027344 301.613281 76.660156 287.242188 76.660156 269.519531 C 76.660156 251.796875 91.027344 237.425781 108.753906 237.425781 L 312.214844 237.425781 L 312.214844 183.570312 C 312.175781 182.84375 312.175781 182.121094 312.214844 181.398438 L 312.214844 181.28125 C 312.519531 173.46875 315.527344 165.730469 321.511719 159.785156 C 334.054688 147.246094 354.367188 147.246094 366.910156 159.785156 L 453.925781 246.804688 C 460.214844 253.09375 463.339844 261.285156 463.339844 269.519531 Z M 463.339844 269.519531 " fill-opacity="1" fill-rule="nonzero"/><g clip-path="url(#22b36e1ce1)"><path fill="#000000" d="M 344.230469 139.277344 C 355.777344 139.277344 366.640625 143.777344 374.796875 151.933594 L 461.816406 238.953125 C 469.972656 247.109375 474.472656 257.972656 474.472656 269.519531 C 474.472656 281.070312 469.972656 291.933594 461.816406 300.089844 L 374.796875 387.105469 C 366.640625 395.261719 355.777344 399.761719 344.230469 399.761719 C 332.679688 399.761719 321.816406 395.261719 313.660156 387.105469 C 306 379.445312 301.539062 369.191406 301.121094 358.023438 C 301.082031 357.035156 301.082031 356.082031 301.121094 355.46875 L 301.121094 312.742188 L 108.753906 312.742188 C 85.042969 312.742188 65.757812 293.570312 65.527344 269.9375 L 65.527344 269.023438 C 65.757812 245.394531 85.042969 226.257812 108.753906 226.257812 L 301.121094 226.257812 L 301.121094 183.914062 C 301.082031 182.921875 301.082031 181.96875 301.121094 180.824219 C 301.539062 169.847656 306 159.554688 313.660156 151.894531 C 321.816406 143.777344 332.679688 139.277344 344.230469 139.277344 M 344.230469 128.148438 C 329.707031 128.148438 316.0625 133.789062 305.808594 144.082031 C 296.167969 153.726562 290.5625 166.644531 290.03125 180.445312 C 289.992188 181.855469 289.992188 183.113281 290.03125 184.332031 L 290.03125 215.167969 L 108.753906 215.167969 C 79.210938 215.167969 54.894531 239.105469 54.398438 268.605469 L 54.398438 270.054688 C 54.703125 299.707031 79.058594 323.835938 108.753906 323.835938 L 289.992188 323.835938 L 289.992188 355.433594 C 289.953125 355.699219 289.953125 357.035156 289.992188 358.367188 C 290.523438 372.316406 296.128906 385.277344 305.808594 394.957031 C 316.0625 405.210938 329.707031 410.851562 344.230469 410.851562 C 358.753906 410.851562 372.398438 405.210938 382.652344 394.921875 L 469.667969 307.902344 C 479.921875 297.648438 485.601562 284.003906 485.601562 269.480469 C 485.601562 254.960938 479.960938 241.316406 469.667969 231.0625 L 382.652344 144.082031 C 372.398438 133.789062 358.753906 128.148438 344.230469 128.148438 Z M 344.230469 128.148438 " fill-opacity="1" fill-rule="nonzero"/></g></svg>