<svg xmlns="http://www.w3.org/2000/svg" xmlns:xlink="http://www.w3.org/1999/xlink" width="720" zoomAndPan="magnify" viewBox="0 0 540 540.000001" height="720" preserveAspectRatio="xMidYMid meet" version="1.0"><defs><clipPath id="52693a9e28"><path d="M 180.167969 53.898438 L 359.832031 53.898438 L 359.832031 485.101562 L 180.167969 485.101562 Z M 180.167969 53.898438 " clip-rule="nonzero"/></clipPath></defs><path fill="#ffbd25" d="M 239.53125 296.058594 C 239.726562 296.136719 239.894531 296.171875 240.070312 296.234375 C 239.867188 296.0625 239.652344 295.933594 239.53125 296.058594 Z M 239.53125 296.058594 " fill-opacity="1" fill-rule="nonzero"/><path fill="#ffbd25" d="M 268.804688 345.828125 C 268.597656 346.699219 268.453125 347.574219 268.335938 348.425781 C 268.535156 348.109375 268.6875 347.773438 268.792969 347.417969 Z M 268.804688 345.828125 " fill-opacity="1" fill-rule="nonzero"/><path fill="#ffbd25" d="M 321.960938 320.964844 C 321.996094 321.148438 322.09375 321.300781 322.246094 321.414062 L 322.316406 321.316406 L 322.183594 320.519531 Z M 321.960938 320.964844 " fill-opacity="1" fill-rule="nonzero"/><path fill="#ffbd25" d="M 266.285156 417.628906 C 266.234375 418.640625 266.203125 419.636719 266.242188 420.527344 C 266.371094 419.5625 266.382812 418.597656 266.285156 417.628906 Z M 266.285156 417.628906 " fill-opacity="1" fill-rule="nonzero"/><path fill="#ffbd25" d="M 239.257812 296.40625 C 239.070312 296.023438 237.519531 296.09375 239.257812 296.40625 Z M 239.257812 296.40625 " fill-opacity="1" fill-rule="nonzero"/><path fill="#ffbd25" d="M 331.117188 102.832031 C 330.796875 104.089844 330.320312 105.285156 329.6875 106.414062 C 330.1875 109.847656 331.328125 100.019531 331.335938 104.8125 C 331.613281 103.640625 331.785156 102.453125 331.847656 101.25 L 330.148438 102.910156 C 329.9375 105.738281 331.011719 101.195312 331.117188 102.832031 Z M 331.117188 102.832031 " fill-opacity="1" fill-rule="nonzero"/><path fill="#ffbd25" d="M 330.390625 304.109375 L 330.082031 304.679688 C 330.761719 304.441406 330.808594 304.878906 331.855469 302.625 C 331.675781 300.359375 329.433594 303.066406 329.648438 299.273438 C 329.445312 300.179688 329.140625 301.050781 328.738281 301.886719 C 329.941406 300.695312 330.25 302.359375 330.390625 304.109375 Z M 330.390625 304.109375 " fill-opacity="1" fill-rule="nonzero"/><path fill="#ffbd25" d="M 328.738281 301.886719 C 328.710938 301.914062 328.679688 301.941406 328.644531 301.964844 C 328.476562 302.085938 328.324219 302.222656 328.1875 302.378906 C 328.035156 302.847656 327.839844 303.292969 327.601562 303.722656 C 328.085938 303.175781 328.464844 302.5625 328.738281 301.886719 Z M 328.738281 301.886719 " fill-opacity="1" fill-rule="nonzero"/><path fill="#ffbd25" d="M 317.34375 150.980469 C 317.125 151.558594 316.925781 152.082031 316.746094 152.558594 C 317.109375 152.09375 317.308594 151.566406 317.34375 150.980469 Z M 317.34375 150.980469 " fill-opacity="1" fill-rule="nonzero"/><path fill="#ffbd25" d="M 250.742188 411.976562 C 250.664062 411.246094 250.574219 410.523438 250.480469 409.949219 C 250.429688 410.640625 250.515625 411.316406 250.742188 411.976562 Z M 250.742188 411.976562 " fill-opacity="1" fill-rule="nonzero"/><path fill="#ffbd25" d="M 317.675781 337.28125 C 317.382812 337.800781 317.117188 338.335938 316.882812 338.882812 C 316.773438 339.238281 316.683594 339.535156 316.550781 339.960938 Z M 317.675781 337.28125 " fill-opacity="1" fill-rule="nonzero"/><path fill="#ffbd25" d="M 338.632812 229.367188 C 338.65625 229.429688 338.707031 229.449219 338.785156 229.445312 C 338.71875 229.761719 338.683594 230.078125 338.675781 230.398438 C 340.363281 229.582031 338.59375 230.261719 339.875 228.652344 L 339.664062 228.679688 C 339.289062 228.914062 338.945312 229.144531 338.632812 229.367188 Z M 338.632812 229.367188 " fill-opacity="1" fill-rule="nonzero"/><path fill="#ffbd25" d="M 331.976562 101.125 C 331.933594 101.113281 331.894531 101.097656 331.859375 101.066406 L 331.847656 101.25 Z M 331.976562 101.125 " fill-opacity="1" fill-rule="nonzero"/><path fill="#ffbd25" d="M 274.699219 237.601562 C 274.054688 237.609375 273.484375 237.621094 272.878906 237.632812 C 273.484375 237.683594 274.09375 237.671875 274.699219 237.601562 Z M 274.699219 237.601562 " fill-opacity="1" fill-rule="nonzero"/><path fill="#ffbd25" d="M 323.742188 314.882812 L 320.769531 323.308594 L 321.960938 320.964844 C 321.722656 319.566406 324.148438 316.332031 323.742188 314.882812 Z M 323.742188 314.882812 " fill-opacity="1" fill-rule="nonzero"/><g clip-path="url(#52693a9e28)"><path fill="#ffbd25" d="M 359.4375 211.085938 C 353.265625 212.101562 353.554688 212.316406 354.789062 212.433594 C 356.054688 212.542969 358.246094 212.558594 356.769531 213.0625 C 354.011719 213.773438 351.214844 214.234375 348.375 214.449219 C 345.664062 214.6875 343.15625 214.757812 341.929688 214.765625 C 344.511719 214.199219 347.121094 213.789062 349.753906 213.535156 C 349.296875 213.136719 348.816406 212.769531 348.308594 212.441406 C 334.105469 213.304688 337.257812 216.699219 329.167969 216.605469 C 333.324219 215.421875 330.457031 215.480469 332.449219 214.332031 C 331.214844 214.804688 324.734375 215.253906 328.75 215.730469 C 325.644531 216.007812 323.476562 216.050781 321.320312 216.085938 C 318.847656 216.660156 316.480469 217.515625 314.210938 218.648438 C 310.933594 218.925781 307.675781 218.804688 304.429688 218.277344 C 303.308594 218.53125 302.191406 218.746094 301.078125 218.929688 C 300.132812 219.070312 299.195312 219.210938 298.261719 219.347656 C 297.527344 219.425781 296.789062 219.464844 296.046875 219.460938 C 294.871094 219.273438 292.648438 220.28125 293.390625 218.457031 L 293.199219 218.753906 C 293.808594 217.445312 293.195312 217.90625 292.503906 218.496094 C 291.816406 219.082031 291.042969 219.839844 291.785156 217.894531 C 293.503906 217.703125 293.757812 215.539062 294.859375 214.890625 C 295.078125 214.496094 295.269531 214.085938 295.425781 213.664062 C 295.640625 213.125 295.855469 212.59375 296.066406 212.070312 C 296.46875 211.019531 296.835938 209.988281 297.164062 208.964844 C 297.820312 206.921875 298.371094 204.941406 298.917969 202.988281 C 299.929688 198.953125 301.285156 195.039062 302.984375 191.242188 C 303.269531 191.414062 303.453125 192.078125 302.9375 193.710938 C 305.570312 187.472656 306.96875 182.199219 308.910156 176.425781 L 309.011719 176.738281 C 312.519531 167.777344 315.140625 158.566406 316.875 149.101562 C 316.828125 149.941406 317.328125 150.3125 317.34375 150.980469 C 319.574219 145.742188 320.859375 140.285156 321.203125 134.601562 C 324.289062 129.1875 321.867188 130.636719 325.316406 123.519531 C 325.695312 123.15625 325.363281 124.332031 325.28125 124.84375 C 326.527344 121.597656 327.597656 118.289062 328.492188 114.925781 C 329.703125 106.410156 328.285156 103.882812 331.25 94.410156 C 333.429688 94.425781 330.292969 100.449219 331.859375 101.066406 C 331.835938 98.875 332.257812 96.773438 333.113281 94.757812 C 333.527344 96.546875 333.535156 95.226562 334.015625 96.511719 C 335.042969 94.609375 333.863281 87.796875 334.046875 87.890625 C 333.675781 87.683594 333.292969 88.332031 332.890625 90.246094 C 332.75 88.085938 333.046875 85.984375 333.777344 83.945312 C 334.125 82.617188 334.492188 81.214844 334.84375 79.851562 C 335.003906 79.148438 335.160156 78.453125 335.3125 77.785156 C 335.542969 76.695312 335.753906 75.65625 335.902344 74.675781 C 335.753906 75.3125 335.492188 76.273438 335.195312 77.304688 C 335.023438 77.910156 334.929688 78.152344 334.8125 78.472656 L 334.449219 79.367188 C 333.953125 80.472656 333.4375 81.140625 333.160156 80.132812 C 333.394531 79.359375 333.578125 78.648438 333.71875 77.980469 C 333.804688 77.542969 333.886719 77.121094 333.96875 76.714844 C 334.046875 76.246094 334.121094 75.796875 334.195312 75.359375 C 334.414062 73.871094 334.527344 72.375 334.53125 70.871094 C 334.535156 68.292969 334.214844 66.449219 334.339844 63.96875 C 335.746094 59.855469 336.023438 60.632812 336.101562 62.613281 C 336.199219 64.515625 336.078125 67.695312 337.089844 66.535156 C 338.015625 64.855469 340.339844 59.847656 340.03125 63.882812 C 340.652344 61.460938 341.125 59.234375 341.5 57.199219 C 341.664062 56.203125 341.828125 55.230469 341.992188 54.269531 L 342.042969 53.921875 C 341.992188 53.867188 341.789062 53.941406 341.671875 53.941406 L 340.847656 54.058594 L 339.21875 54.304688 C 334.921875 54.964844 330.796875 55.683594 326.859375 56.167969 L 327.269531 55.714844 C 324.566406 55.980469 321.796875 56.355469 319.117188 56.757812 L 317.125 57.066406 L 316.136719 57.21875 L 315.5 57.351562 C 314.675781 57.523438 313.855469 57.695312 313.042969 57.863281 C 310.027344 58.585938 306.96875 58.929688 303.867188 58.894531 L 306.847656 59.097656 C 304.738281 59.378906 302.6875 59.898438 300.699219 60.652344 C 300.8125 60.035156 297.554688 59.800781 297.804688 59.265625 C 296.335938 60.074219 294.773438 60.617188 293.117188 60.898438 C 291.921875 60.449219 290.207031 60.1875 289.535156 61.148438 C 288.003906 60.707031 289.8125 60.507812 290.09375 60.085938 C 289.386719 59.1875 288.980469 60.96875 288.417969 60.378906 C 288.421875 60.25 288.46875 60.144531 288.5625 60.058594 C 286.5625 60.207031 284.5625 60.214844 282.558594 60.078125 C 282.570312 60.335938 282.507812 60.574219 282.371094 60.792969 C 281.925781 61.019531 281.46875 61.21875 281 61.394531 C 280.421875 61.386719 279.882812 61.527344 279.382812 61.816406 C 279.648438 61.183594 277.988281 61.28125 277.28125 61.011719 L 276.195312 62.527344 C 275.097656 63.835938 274.375 61.917969 272.851562 62.738281 L 273.277344 63.023438 C 272.324219 63.25 271.363281 63.289062 270.398438 63.132812 C 269.429688 62.980469 268.527344 62.648438 267.695312 62.136719 C 257.359375 67.085938 250.746094 62.246094 239.476562 64.835938 C 238.8125 65.496094 240.152344 65.6875 239.6875 66.585938 C 238.890625 66.847656 238.074219 67.019531 237.242188 67.101562 C 238.242188 67.460938 238.003906 66.871094 237.960938 67.398438 L 239.496094 66.652344 C 239.59375 66.773438 239.421875 66.855469 239.613281 67.09375 C 240.164062 66.71875 240.765625 66.484375 241.421875 66.386719 C 240.496094 67.003906 240.410156 68.398438 238.976562 68.078125 C 239.054688 67.875 239.21875 67.792969 239.5625 67.625 C 238.421875 67.679688 238.460938 68.335938 237.5625 68.097656 C 236.488281 67.945312 236.800781 68.328125 236.582031 67.761719 L 233.253906 67.519531 C 231.90625 69.367188 229.671875 68.164062 229.117188 68.101562 C 229.269531 66.839844 231.21875 67.363281 231.820312 66.066406 L 230.511719 65.363281 L 230.59375 66.34375 L 228.871094 66.351562 L 228.933594 66.152344 C 228.796875 66.5625 228.65625 66.972656 228.167969 66.707031 C 228.074219 66.585938 227.867188 66.347656 228.042969 66.261719 L 226.933594 66.992188 C 227.175781 66.4375 226.972656 66.394531 226.527344 66.375 C 225.996094 66.363281 225.300781 66.476562 225.3125 65.863281 C 223.863281 66.132812 222.445312 66.523438 221.058594 67.023438 C 220.046875 67.429688 219.128906 67.980469 218.300781 68.6875 C 217.148438 69.898438 216.183594 71.074219 214.785156 72.652344 C 214.46875 72.640625 214.125 72.628906 213.710938 72.601562 L 212.273438 73.601562 C 212.742188 73.628906 213.296875 73.648438 213.882812 73.660156 L 213.667969 73.898438 C 214.546875 73.355469 214.402344 76.503906 213.753906 78.046875 C 213.183594 78.914062 212.855469 79.125 212.621094 78.339844 C 212.585938 78.964844 212.621094 79.585938 212.722656 80.203125 C 211.109375 81.132812 211.058594 82.386719 210.679688 83.886719 C 210.667969 83.804688 210.675781 83.710938 210.65625 83.632812 C 210.339844 84.265625 210.0625 84.917969 209.824219 85.585938 L 209.546875 85.433594 C 209.605469 85.601562 209.648438 85.773438 209.695312 85.945312 C 209.390625 86.800781 209.132812 87.671875 208.925781 88.554688 L 208.664062 88.417969 C 208.488281 88.601562 208.402344 88.820312 208.40625 89.074219 C 208.410156 89.328125 208.5 89.546875 208.679688 89.726562 C 208.46875 90.785156 208.378906 91.851562 208.414062 92.933594 L 208.1875 92.457031 C 207.554688 94.210938 208.496094 94.703125 208.316406 96.320312 C 208.824219 95.808594 208.359375 94.832031 208.660156 94.09375 C 208.703125 94.234375 208.765625 94.367188 208.84375 94.492188 C 208.851562 94.34375 208.875 94.195312 208.886719 94.050781 L 209.085938 94.328125 L 208.898438 93.9375 C 208.996094 92.839844 209.1875 91.757812 209.464844 90.691406 C 209.574219 90.886719 209.621094 91.09375 209.601562 91.316406 C 209.585938 91.535156 209.507812 91.734375 209.367188 91.910156 C 209.855469 91.988281 210.3125 91.90625 210.746094 91.667969 L 210.765625 91.96875 L 210.800781 91.644531 C 211.027344 91.542969 211.257812 91.445312 211.492188 91.359375 L 211.449219 91.734375 C 210.90625 92.347656 210.769531 93.230469 211.390625 93.039062 C 211.386719 94.984375 211.054688 94.308594 210.757812 94.402344 L 211.152344 95.640625 C 210.785156 96.917969 209.636719 95.714844 209.136719 95.089844 C 210 96.574219 208.871094 97.695312 208.371094 99.023438 L 208.015625 98.351562 L 207.527344 99.753906 C 207.320312 98.699219 207.40625 97.671875 207.792969 96.667969 L 207.878906 96.644531 L 207.816406 96.589844 C 207.882812 96.34375 207.953125 96.089844 208.042969 95.800781 C 207.894531 95.835938 207.746094 96.058594 207.589844 96.390625 L 206.90625 95.773438 C 206.921875 95.96875 206.941406 96.347656 206.648438 96.433594 C 206.734375 96.566406 206.847656 96.660156 206.992188 96.71875 C 207.136719 96.773438 207.285156 96.785156 207.4375 96.75 C 206.53125 99.121094 205.53125 105.039062 204.589844 103.996094 C 203.183594 108.269531 204.820312 105.410156 205.1875 106.4375 C 204.960938 106.578125 204.710938 106.71875 204.464844 106.894531 C 204.632812 107.511719 204.605469 108.121094 204.375 108.722656 C 204.292969 108.460938 204.238281 108.191406 204.207031 107.917969 C 204.003906 108.605469 203.746094 109.488281 203.496094 110.402344 C 202.601562 111.742188 201.625 113.007812 202.542969 114.574219 L 201.640625 114.671875 C 202.746094 118.230469 199.378906 121.320312 201.382812 124.378906 C 200.113281 125.472656 199.949219 126.179688 200.148438 126.75 L 199.746094 133.613281 C 199.476562 134.652344 199.203125 135.695312 198.925781 136.742188 C 198.496094 137.277344 198.195312 137.875 198.019531 138.539062 C 197.847656 139.207031 197.816406 139.875 197.925781 140.554688 C 195.527344 148.648438 194.003906 156.902344 193.351562 165.320312 L 192.757812 165.195312 C 192.417969 166.65625 192.125 168.125 191.820312 169.585938 C 191.597656 169.761719 191.410156 169.972656 191.261719 170.214844 C 191.113281 170.457031 191.007812 170.71875 190.953125 170.996094 C 190.894531 171.273438 190.886719 171.554688 190.929688 171.835938 C 190.96875 172.117188 191.058594 172.382812 191.195312 172.632812 C 188.851562 184.765625 187.523438 196.898438 185.929688 209.089844 C 185.8125 209.171875 185.691406 209.175781 185.566406 209.101562 C 185.640625 209.386719 185.726562 209.683594 185.8125 209.976562 C 185.578125 211.753906 185.332031 213.53125 185.082031 215.3125 C 185.011719 214.664062 184.832031 214.046875 184.539062 213.460938 C 184.410156 216.363281 184.457031 219.265625 184.675781 222.164062 C 184.070312 223.875 183.929688 225.625 184.253906 227.414062 L 184.53125 227.070312 L 184.390625 228.453125 C 183.957031 228.558594 183.523438 228.691406 183.421875 228.359375 C 185.410156 232.371094 182.082031 231.1875 182.71875 234.464844 C 183.105469 234.652344 183.441406 234.910156 183.722656 235.238281 L 183.550781 236.972656 C 183.570312 237.351562 183.578125 237.753906 183.597656 238.140625 C 183.53125 238.125 183.464844 238.089844 183.394531 238.136719 C 183.519531 238.378906 183.597656 238.636719 183.628906 238.910156 C 183.769531 242.078125 183.820312 245.378906 183.832031 248.746094 C 183.828125 248.777344 183.828125 248.808594 183.832031 248.839844 L 183.835938 250.894531 C 183.324219 251.476562 182.988281 252.519531 182.277344 252.21875 C 183.335938 253.992188 182.65625 254.558594 183.296875 256.433594 C 183.523438 256.007812 183.703125 255.824219 183.855469 255.765625 C 183.859375 256.839844 183.871094 257.90625 183.886719 258.972656 C 183.632812 258.902344 183.375 258.882812 183.113281 258.914062 C 183.117188 257.882812 181.972656 256.566406 182.113281 255.078125 C 181.632812 256.355469 180.460938 258.164062 181.144531 259.824219 L 182.945312 259.976562 C 182.945312 261.152344 184.039062 261.480469 183.957031 262.277344 L 183.957031 262.363281 C 183.453125 261.898438 182.679688 262.707031 182.789062 263.691406 C 183.054688 263.417969 183.007812 263.023438 183.320312 263.140625 C 183.363281 263.914062 183.621094 264.605469 184.085938 265.222656 C 184.21875 269.253906 184.699219 273.246094 185.527344 277.195312 L 185.480469 276.710938 C 185.589844 276.90625 185.789062 276.996094 186.191406 277.136719 L 185.953125 277.664062 L 186.675781 279.394531 C 186.535156 280.527344 186.207031 281.34375 185.765625 281.113281 C 185.6875 281.933594 185.691406 282.796875 185.671875 283.648438 L 184.417969 283.53125 C 184.933594 285.4375 185.507812 285.546875 186.597656 286.324219 C 186.78125 288.222656 187.113281 290.09375 187.597656 291.941406 C 186.964844 291.046875 186.5625 290.363281 186.167969 289.824219 C 186.589844 290.90625 187.070312 291.964844 187.601562 292.996094 C 188.261719 294.269531 188.910156 294.847656 189.167969 294.542969 C 188.816406 293.707031 188.355469 292.9375 187.792969 292.226562 C 187.734375 292.144531 187.707031 292.09375 187.648438 292.015625 C 187.304688 290.1875 187.289062 289.636719 187.523438 289.316406 C 187.964844 290.664062 188.679688 291.851562 189.667969 292.871094 C 189.695312 292.957031 189.734375 293.039062 189.777344 293.117188 C 189.882812 293.617188 190.03125 294.105469 190.222656 294.578125 C 190 293.945312 190.027344 293.707031 190.210938 293.730469 L 190.257812 293.789062 L 190.253906 293.746094 C 190.964844 294.222656 191.570312 294.808594 192.066406 295.503906 C 192.800781 296.84375 193.734375 298.023438 194.871094 299.042969 C 195.9375 300.058594 196.851562 300.75 196.699219 301.101562 C 195.6875 300.695312 194.832031 300.074219 194.132812 299.234375 C 193.566406 298.902344 194.464844 299.890625 195.210938 300.597656 C 195.9375 301.304688 196.4375 301.925781 194.5625 301.121094 C 196.035156 302.007812 197.59375 302.691406 199.238281 303.179688 C 201.769531 304.699219 197.09375 303.476562 198.027344 304.203125 C 201.132812 305.148438 204.292969 305.359375 207.5 304.828125 C 208.460938 304.699219 209.367188 304.5625 210.28125 304.433594 C 210.398438 304.496094 210.507812 304.523438 210.625 304.597656 C 210.691406 304.515625 210.667969 304.453125 210.699219 304.378906 C 210.988281 304.339844 211.292969 304.304688 211.589844 304.269531 C 211.421875 304.386719 211.273438 304.511719 211.101562 304.625 C 211.464844 304.457031 211.730469 304.335938 211.964844 304.230469 C 212.890625 304.132812 213.84375 304.058594 214.917969 304.042969 C 214.863281 304.125 214.820312 304.214844 214.789062 304.308594 L 214.222656 304.5 L 214.617188 304.96875 C 214.523438 305.445312 214.484375 305.859375 214.539062 305.59375 C 214.757812 305.632812 214.988281 305.640625 215.207031 305.667969 L 215.503906 306.019531 C 215.726562 305.964844 215.941406 305.886719 216.148438 305.777344 C 219.269531 305.679688 222.367188 305.367188 225.445312 304.839844 C 225.5 304.871094 225.5625 304.894531 225.617188 304.925781 C 225.304688 304.921875 224.988281 304.921875 224.6875 304.945312 C 225.125 304.996094 225.539062 305.042969 225.972656 305.089844 C 226.230469 305.191406 226.496094 305.230469 226.769531 305.214844 L 226.753906 305.179688 C 233.371094 305.921875 239.507812 306.609375 245.519531 307.28125 L 250.484375 307.898438 C 252.082031 308.117188 254.011719 308.332031 254.964844 308.589844 C 255.304688 308.640625 255.625 308.746094 255.929688 308.910156 C 256.230469 309.070312 256.496094 309.277344 256.726562 309.53125 C 256.957031 309.785156 257.140625 310.066406 257.273438 310.382812 C 257.40625 310.699219 257.484375 311.027344 257.503906 311.371094 C 258.234375 311.546875 258.859375 311.910156 259.382812 312.453125 C 259.296875 312.609375 259.203125 312.757812 259.097656 312.902344 L 258.792969 313.644531 L 258.128906 315.308594 C 256.617188 328.617188 255.90625 341.96875 256 355.359375 C 255.820312 359.730469 254.644531 357.898438 254.03125 359.917969 C 253.203125 369.472656 254.96875 371.9375 254.746094 381.078125 C 254.308594 379.789062 252.984375 377.554688 252.65625 381.472656 C 253.089844 381.996094 253.371094 382.589844 253.5 383.257812 C 253.625 383.925781 253.585938 384.582031 253.371094 385.226562 L 252.933594 383.933594 C 252.332031 386.941406 252.007812 389.980469 251.960938 393.046875 C 251.476562 400.855469 252.007812 408.59375 253.554688 416.261719 C 252.898438 423.578125 251.777344 415.378906 251.3125 416.746094 C 252.28125 411.621094 251.25 413.136719 250.738281 411.976562 C 251.039062 414.742188 251.117188 418.066406 249.808594 419.394531 C 249.507812 422.519531 249.582031 425.636719 250.03125 428.746094 C 249.742188 426.824219 250.503906 425.242188 250.9375 427.054688 C 250.308594 430.140625 250.246094 438.105469 248.761719 437.5625 C 248.3125 446.59375 247.675781 456.152344 246.996094 465.867188 C 246.855469 467.886719 246.710938 469.914062 246.570312 471.945312 L 246.472656 472.148438 L 245.867188 473.417969 L 245.773438 473.605469 C 242.757812 472.117188 244.074219 472.777344 246.429688 473.949219 L 246.226562 476.84375 L 246.203125 477.246094 C 246.140625 478.746094 246.484375 480.144531 247.238281 481.445312 C 247.578125 482.027344 247.984375 482.554688 248.464844 483.03125 C 248.945312 483.503906 249.476562 483.90625 250.0625 484.238281 C 250.648438 484.570312 251.265625 484.820312 251.917969 484.988281 C 252.570312 485.15625 253.234375 485.234375 253.910156 485.222656 C 254.582031 485.214844 255.242188 485.117188 255.890625 484.933594 C 256.539062 484.746094 257.148438 484.480469 257.726562 484.132812 C 258.304688 483.785156 258.824219 483.367188 259.289062 482.878906 C 259.753906 482.394531 260.148438 481.855469 260.472656 481.261719 L 260.714844 480.785156 L 260.917969 480.371094 L 261.734375 478.710938 L 262.035156 478.09375 L 262.742188 478.136719 L 262.75 478.070312 L 262.753906 477.925781 L 262.792969 477.359375 L 262.847656 476.421875 C 264.632812 472.757812 266.414062 469.09375 268.175781 465.476562 C 268.878906 462.171875 266.828125 467.589844 267.105469 465.726562 C 268.230469 460.976562 269.195312 462.542969 270.089844 458.738281 L 270.167969 460.519531 C 272.410156 455.164062 274.171875 449.660156 275.460938 444 C 275.941406 445.21875 278.039062 440.210938 276.660156 444.601562 C 277.628906 442.09375 282.832031 440.859375 282.90625 438.605469 L 278.0625 439.746094 C 277.773438 439.449219 279.550781 436.117188 279.15625 436.351562 C 280.855469 434.691406 282.300781 432.832031 283.496094 430.78125 C 284.714844 430.453125 282.902344 434.125 281.9375 436.144531 C 283.335938 437.140625 285.976562 429.671875 286.054688 433.265625 C 287.742188 428.753906 285.003906 433.546875 285.597656 430.667969 L 287.609375 426.972656 L 285.796875 429.710938 C 286.0625 426.492188 287.0625 423.523438 288.800781 420.800781 L 289.230469 415.714844 C 290.625 415.78125 290.828125 412.5625 292.082031 410.390625 L 292.242188 412.152344 C 293.023438 410.035156 294.097656 408.078125 295.457031 406.273438 C 295.789062 408.441406 294.03125 408.929688 294.722656 410.089844 L 296.5 406.886719 C 295.808594 406.617188 296.175781 404.261719 294.742188 406.484375 C 294.640625 404.132812 294.839844 401.808594 295.347656 399.511719 C 295.855469 397.214844 296.648438 395.019531 297.730469 392.929688 C 300.355469 389.878906 297.21875 397.15625 298.976562 396.167969 C 302.808594 388.238281 299.992188 385 302 380.289062 C 303.621094 376.332031 304.949219 372.28125 305.988281 368.132812 C 306.046875 370.414062 308.492188 364.140625 309.695312 363.292969 L 309.605469 366.0625 C 310.003906 364.367188 310.792969 362.898438 311.25 362.996094 C 312.003906 358.664062 313.097656 354.421875 314.539062 350.265625 L 313.328125 350.667969 C 314.226562 346.652344 315.410156 342.726562 316.882812 338.882812 C 318.5 333.492188 317.203125 334.382812 317.625 329.945312 C 319.265625 327.988281 320.179688 328.585938 320.945312 329.699219 C 319.933594 331.640625 319.050781 333.636719 318.292969 335.691406 C 317.484375 342.3125 316.003906 348.78125 313.84375 355.09375 C 315.03125 358.828125 315.265625 350.503906 317.222656 347.546875 C 317.308594 347.765625 317.304688 347.984375 317.214844 348.199219 C 317.3125 347.925781 317.433594 347.664062 317.578125 347.410156 C 316.980469 349.910156 315.921875 353.945312 316.832031 355.027344 C 318.074219 350.929688 315.632812 351.285156 318.425781 346.660156 C 319.136719 342.738281 322.027344 340.382812 322.996094 338.199219 C 323.011719 335.421875 321.222656 334.667969 323.703125 328.722656 L 324.050781 331.832031 C 326.488281 324.964844 323.308594 327.953125 325.597656 321.613281 C 324.660156 323.792969 325.097656 319.019531 323.570312 323.253906 C 324.03125 319.644531 325.042969 316.195312 326.597656 312.910156 C 326.707031 311.941406 326.226562 312.570312 325.84375 312.261719 C 323.65625 315.789062 324.6875 318.621094 322.316406 321.316406 L 322.765625 324.445312 C 321.019531 327.824219 319.785156 327.792969 320.003906 325.433594 C 319.851562 326.355469 319.550781 327.222656 319.097656 328.042969 C 316.808594 327.921875 321.328125 324.042969 320 322.203125 L 319.269531 324.757812 C 317.535156 325.367188 320.160156 318.515625 321.3125 315.296875 C 323.179688 311.851562 324.539062 308.574219 325.601562 308.652344 L 324.367188 313.71875 C 325.625 310.726562 326.511719 307.625 327.027344 304.421875 C 327.265625 304.226562 327.457031 303.992188 327.601562 303.722656 C 327.464844 303.839844 327.347656 303.898438 327.253906 303.863281 C 327.46875 303.308594 327.78125 302.816406 328.1875 302.378906 C 329.050781 299.871094 329.644531 295.964844 330.71875 293.71875 L 329.746094 293.726562 L 330.136719 294.203125 C 329.359375 296.503906 327.808594 299.460938 327.714844 297.5 C 327.761719 296.796875 327.894531 296.105469 328.109375 295.429688 C 328.324219 294.757812 328.617188 294.117188 328.992188 293.515625 C 329.363281 292.914062 329.800781 292.363281 330.308594 291.871094 C 330.8125 291.375 331.375 290.949219 331.984375 290.59375 C 332.945312 292.222656 330.328125 295.679688 329.933594 298.480469 C 331.777344 297.316406 331.785156 293.21875 334.40625 288.105469 C 335.175781 290.722656 332.363281 294.355469 333.332031 295.976562 C 334.972656 291.703125 334.335938 290.246094 336.136719 285.773438 C 336.652344 286.578125 335.277344 291.058594 336.238281 291.042969 L 337.605469 288.234375 C 335.359375 295.488281 339.835938 287.542969 338.371094 293.296875 C 339.828125 290.824219 338.398438 289.210938 340.488281 285.695312 C 339.519531 286.558594 337.421875 289.222656 337.972656 285.414062 L 339.671875 281.441406 C 340.910156 279.941406 339.90625 286.210938 341.332031 283.71875 L 342.164062 279.261719 C 341.679688 279.269531 340.824219 281.265625 340.621094 279.785156 C 341.859375 277.441406 340.191406 275.191406 340.445312 272.074219 C 340.828125 270.320312 341.539062 268.714844 342.574219 267.253906 C 343.003906 260.976562 345.285156 253.542969 345.539062 247.742188 C 345.382812 251.703125 347.085938 248.023438 348.378906 245.988281 C 347.363281 250.316406 348.734375 250.742188 349.703125 250.699219 C 350.289062 248.046875 349.34375 245.941406 348.511719 247.128906 C 350.300781 242.933594 348.394531 243.859375 350.402344 240.296875 C 351.578125 237.953125 351.421875 241.914062 352.183594 241.203125 C 353.609375 236.347656 350.699219 240.121094 353.054688 232.652344 C 353.140625 233.070312 353.007812 233.796875 353.449219 233.171875 C 354.769531 230.191406 355.226562 227.089844 354.820312 223.859375 C 356.089844 221.664062 357.007812 219.332031 357.574219 216.863281 C 357.914062 215.128906 358.402344 213.441406 359.042969 211.796875 C 358.710938 211.71875 358.8125 211.5 359.4375 211.085938 Z M 211.570312 91.324219 C 211.820312 91.230469 212.078125 91.191406 212.347656 91.203125 C 212.015625 91.261719 211.738281 91.414062 211.511719 91.664062 Z M 217.789062 296.191406 C 217.433594 296.140625 217.085938 296.085938 216.757812 296.03125 C 216.957031 295.496094 217.523438 295.527344 218.21875 295.691406 C 218.066406 295.84375 217.933594 296.027344 217.789062 296.191406 Z M 207.214844 103.757812 C 207.109375 104.035156 206.984375 104.308594 206.84375 104.570312 L 205.921875 103.488281 L 205.953125 103.316406 C 207.085938 101.191406 207.066406 102.851562 207.214844 103.757812 Z M 205.828125 103.996094 C 205.996094 104.042969 206.15625 104.089844 206.207031 104.191406 C 206.335938 104.589844 206.328125 104.980469 206.179688 105.371094 C 206.035156 105.761719 205.777344 106.0625 205.417969 106.273438 Z M 200.65625 129.917969 C 200.492188 129.148438 200.414062 127.886719 200.277344 127.035156 C 200.769531 127.886719 201.886719 128.503906 200.65625 129.917969 Z M 187.03125 220.203125 C 186.910156 220.8125 186.824219 222.214844 186.082031 222.140625 C 185.933594 221.441406 185.636719 221.324219 185.363281 221.277344 C 185.3125 220.449219 185.292969 219.609375 185.277344 218.785156 C 185.855469 219.234375 186.671875 219.140625 187.03125 220.203125 Z M 185.367188 226.027344 C 185.535156 226.847656 185.476562 227.652344 185.195312 228.441406 C 185.066406 228.371094 184.929688 228.351562 184.785156 228.378906 C 184.734375 227.898438 184.675781 227.425781 184.601562 226.980469 Z M 186.949219 241.527344 L 186.5625 243.058594 C 186.472656 242.328125 185.875 242.585938 185.546875 242.261719 C 185.503906 241.003906 185.585938 239.796875 185.363281 240.195312 L 185.429688 242.070312 C 185.324219 241.761719 185.304688 241.445312 185.371094 241.121094 C 185.328125 241.265625 185.292969 241.40625 185.269531 241.554688 C 185.109375 240.125 185.039062 238.695312 185.0625 237.257812 C 185.753906 238.601562 186.359375 240.167969 186.949219 241.527344 Z M 183.324219 253.792969 C 183.363281 253.6875 183.433594 253.609375 183.53125 253.550781 C 183.628906 253.496094 183.734375 253.476562 183.84375 253.492188 L 183.847656 253.996094 C 183.703125 253.84375 183.53125 253.777344 183.324219 253.792969 Z M 190.070312 292.574219 C 190.234375 292.859375 190.425781 293.128906 190.640625 293.378906 C 190.464844 293.296875 190.296875 293.191406 190.144531 293.070312 C 190.121094 292.90625 190.082031 292.761719 190.070312 292.574219 Z M 251.941406 297.5625 C 251.738281 297.792969 251.492188 297.972656 251.320312 298.144531 C 250.375 298.152344 250.464844 297.683594 250.492188 297.273438 C 251.019531 297.371094 251.507812 297.46875 251.941406 297.5625 Z M 252.992188 298.324219 C 253.4375 298.644531 253.28125 298.992188 252.953125 299.324219 L 251.359375 299.539062 C 250.847656 299.457031 250.34375 299.347656 249.839844 299.214844 C 251.054688 298.691406 251.988281 297.707031 252.992188 298.320312 Z M 226.660156 304.941406 C 226.640625 304.875 226.613281 304.8125 226.585938 304.75 C 227.304688 304.699219 228.019531 304.691406 228.738281 304.71875 C 228.0625 304.957031 227.371094 305.03125 226.660156 304.941406 Z M 258.039062 300.390625 C 257.445312 300.207031 256.78125 300.011719 256.042969 299.851562 C 255.378906 299.699219 254.707031 299.609375 254.023438 299.585938 C 254.453125 299.449219 255.050781 299.464844 254.242188 299.148438 L 253.09375 299.304688 C 253.40625 298.75 253.738281 298.179688 254.519531 298.1875 C 254.675781 298.230469 254.828125 298.269531 254.984375 298.316406 C 255.367188 298.429688 255.75 298.542969 256.144531 298.660156 C 256.019531 298.832031 255.980469 299.007812 256.261719 299.210938 C 256.554688 299.222656 256.8125 299.136719 257.039062 298.949219 C 257.273438 299.023438 257.496094 299.085938 257.734375 299.171875 C 258.953125 299.597656 260.113281 300.148438 261.21875 300.816406 C 260.121094 300.957031 259.0625 300.816406 258.039062 300.390625 Z M 263.074219 297.355469 C 264.058594 297.992188 265.078125 298.667969 264.574219 298.667969 C 263.847656 298.242188 263.09375 297.882812 262.3125 297.585938 C 262.582031 297.570312 262.835938 297.492188 263.074219 297.355469 Z M 260.835938 298.628906 C 260.925781 298.628906 261.066406 298.671875 261.175781 298.6875 L 261.074219 298.78125 C 260.992188 298.730469 260.9375 298.6875 260.835938 298.628906 Z M 339.292969 232.664062 C 338.890625 232.355469 338.4375 232.164062 337.9375 232.085938 C 336.902344 233.011719 338.390625 232.347656 338.59375 232.550781 C 338.683594 232.828125 338.691406 233.105469 338.621094 233.390625 C 338.550781 233.671875 338.410156 233.914062 338.199219 234.113281 C 337.699219 234.929688 336.976562 235.816406 336.257812 236.855469 C 335.675781 244.542969 329.914062 250.679688 330.152344 257.480469 L 329.101562 257.992188 C 328.417969 266.988281 322.863281 275.867188 323.261719 283.339844 C 317.09375 292.644531 323.679688 290.878906 318.078125 299.425781 L 318.589844 299.246094 C 307.96875 329.898438 294.585938 361.539062 284.390625 390.0625 L 283.855469 389.777344 C 277.902344 403.441406 271.957031 416.960938 265.917969 430.382812 C 266.019531 429.039062 266.089844 427.707031 266.195312 426.359375 C 265.9375 421.792969 264.425781 424.4375 264.007812 420.488281 C 264.171875 418.792969 264.355469 414.953125 265.097656 414.984375 C 265.289062 418.296875 266.066406 416.488281 266.285156 417.628906 C 267.042969 411.855469 267.386719 406.058594 267.308594 400.238281 L 266.082031 404.253906 C 265.972656 402.042969 266.089844 399.84375 266.433594 397.660156 C 266.875 398.414062 268.089844 395.992188 268.226562 397.488281 C 266.519531 387.046875 269.777344 389.535156 269.410156 380.816406 C 267.488281 378.953125 266.535156 368.007812 265.554688 360.773438 L 266.332031 357.0625 C 265.988281 362.042969 267.824219 357.066406 267.320312 363.238281 C 268.246094 358.121094 267.6875 353.28125 268.335938 348.425781 C 267.761719 349.339844 267.109375 349.054688 267.011719 347.078125 C 267.484375 344.101562 268.527344 343.90625 268.855469 340.492188 L 269.269531 343.914062 C 269.742188 341.792969 269.761719 339.671875 269.324219 337.542969 C 270.21875 336.914062 270.714844 331.8125 271.601562 332.78125 C 271.203125 329.03125 271.035156 325.273438 271.097656 321.503906 C 269.859375 326.601562 270.066406 320.105469 269.316406 320.636719 L 269.273438 326.472656 C 270.382812 318.3125 269.246094 329.144531 270.738281 328.625 C 269.8125 332.4375 268.695312 323.179688 268.496094 329.648438 C 268.382812 325.769531 268.511719 323.433594 268.589844 321.070312 C 268.625 319.886719 268.648438 318.699219 268.621094 317.308594 C 268.59375 316.605469 268.566406 315.851562 268.535156 315.019531 C 268.480469 314.140625 268.421875 313.238281 268.238281 311.761719 C 268.359375 312.566406 268.339844 313.363281 268.167969 314.160156 C 268.078125 314.347656 267.945312 314.144531 267.792969 313.863281 C 267.488281 313.292969 267.09375 312.449219 266.832031 313.824219 C 266.898438 310.273438 266.699219 309.625 267.03125 309.796875 C 267.296875 309.90625 267.789062 310.753906 268.074219 309.375 C 267.851562 307.574219 267.308594 305.875 266.445312 304.28125 C 266.011719 303.527344 265.449219 302.882812 264.757812 302.355469 C 264.066406 301.824219 263.296875 301.453125 262.457031 301.230469 C 260.957031 300.242188 260.144531 299.953125 259.925781 299.707031 C 259.683594 299.496094 259.984375 299.433594 260.402344 299.429688 C 261.132812 299.410156 262.28125 299.601562 261.292969 298.921875 L 261.65625 298.78125 C 262.945312 299.1875 264.101562 299.828125 265.132812 300.703125 C 267.0625 302.355469 268.378906 304.398438 269.082031 306.839844 C 269.621094 308.945312 269.972656 311.078125 270.136719 313.246094 C 270.363281 314.476562 270.773438 315.058594 271.597656 314.707031 C 271.453125 317.683594 272.449219 321.015625 272.117188 325.0625 C 272.441406 323.328125 272.949219 321.226562 273.320312 319.015625 C 273.503906 317.890625 273.65625 316.808594 273.734375 315.605469 C 273.777344 314.976562 273.796875 314.316406 273.777344 313.585938 L 273.707031 312.136719 C 273.671875 311.605469 273.609375 311.082031 273.53125 310.570312 L 271.710938 310.402344 C 271.582031 308.363281 270.921875 306.515625 269.730469 304.855469 C 268.859375 303.691406 268.058594 302.773438 266.839844 301.332031 C 267.695312 301.910156 267.726562 301.390625 267.015625 300.34375 C 266.546875 299.691406 266 299.121094 265.363281 298.632812 C 265.476562 298.652344 265.589844 298.652344 265.703125 298.632812 L 265.191406 298.511719 C 264.558594 298.035156 263.878906 297.640625 263.160156 297.316406 C 263.3125 297.210938 263.4375 297.078125 263.539062 296.921875 C 263.023438 296.648438 262.472656 296.515625 261.886719 296.527344 C 261.300781 296.542969 260.757812 296.699219 260.257812 296.996094 C 258.890625 296.753906 257.515625 296.660156 256.128906 296.714844 C 256.015625 296.65625 255.933594 296.566406 255.886719 296.445312 C 255.835938 296.328125 255.835938 296.207031 255.875 296.082031 C 254.605469 295.78125 255.027344 296.289062 255.113281 296.8125 C 254.832031 296.839844 254.539062 296.867188 254.257812 296.898438 C 254.316406 296.796875 254.390625 296.703125 254.46875 296.613281 C 253.5 296.492188 251.480469 296.121094 251.839844 296.96875 L 252.054688 297.085938 C 251.589844 297.113281 251.054688 297.121094 250.492188 297.121094 C 250.5 297.023438 250.476562 296.933594 250.429688 296.847656 C 248.507812 296.582031 249.8125 298.316406 248.839844 298.734375 C 248.371094 298.09375 250.796875 297.503906 247.445312 296.808594 C 247.503906 296.75 247.558594 296.683594 247.609375 296.613281 L 247.242188 296.753906 C 244 295.527344 242.609375 297.019531 240.070312 296.234375 C 240.234375 296.363281 240.402344 296.496094 240.554688 296.59375 C 239.976562 296.527344 239.5625 296.464844 239.257812 296.40625 C 239.28125 296.433594 239.292969 296.464844 239.296875 296.496094 C 236.109375 296.441406 232.707031 296.085938 231.734375 296.957031 C 231.660156 296.878906 231.566406 296.828125 231.453125 296.8125 C 231.695312 296.570312 231.960938 296.355469 232.242188 296.164062 C 231.550781 295.601562 231.332031 293.78125 230.457031 295.789062 L 230.636719 296.054688 C 230.097656 295.601562 229.320312 296.390625 228.703125 296.460938 C 228.753906 296.617188 228.824219 296.769531 228.910156 296.910156 L 228.734375 296.9375 C 227.886719 296.902344 227.972656 297.078125 226.058594 296.15625 L 226.289062 297.304688 C 226.0625 297.332031 225.824219 297.355469 225.582031 297.378906 C 225.269531 297.054688 225.058594 296.679688 224.953125 296.242188 C 224.367188 296.34375 223.78125 296.34375 223.191406 296.25 C 223.347656 295.933594 223.59375 295.730469 223.933594 295.636719 C 223.125 294.640625 222.898438 295.019531 222.621094 295.554688 C 222.191406 296.015625 221.535156 295.957031 220.871094 295.949219 L 221.464844 295.269531 C 221.0625 295.425781 220.5625 295.625 220.519531 295.949219 C 220.246094 295.953125 219.984375 296.007812 219.734375 296.117188 C 219.777344 296.1875 219.835938 296.304688 219.90625 296.4375 C 219.75 296.429688 219.605469 296.410156 219.4375 296.414062 L 219.921875 296.46875 C 219.992188 296.597656 220.085938 296.75 220.191406 296.902344 C 219.855469 296.773438 219.539062 296.605469 219.242188 296.410156 L 219.4375 296.414062 C 218.9375 296.355469 218.453125 296.289062 217.984375 296.222656 C 218.773438 295.871094 219.023438 295.878906 219.890625 295.546875 C 218.835938 294.964844 217.238281 294.59375 217.410156 293.546875 C 216.769531 294.230469 215.96875 295.210938 216.398438 295.964844 C 215.917969 295.878906 215.488281 295.792969 215.097656 295.707031 C 215.363281 295.320312 215.75 294.96875 215.570312 294.917969 C 215.28125 294.855469 214.992188 294.867188 214.710938 294.953125 C 214.425781 295.042969 214.183594 295.195312 213.980469 295.414062 C 213.273438 295.183594 212.980469 294.964844 213.339844 294.785156 C 211.511719 294.53125 209.695312 294.300781 208.046875 294.019531 C 209.277344 294.179688 210.453125 293.996094 211.578125 293.46875 C 210.5 293.199219 209.476562 292.886719 208.5 292.550781 C 206.546875 292.78125 204.679688 292.484375 202.894531 291.65625 C 201.429688 290.921875 199.890625 290.394531 198.285156 290.074219 L 198.382812 290.144531 C 198.25 290.203125 198.128906 290.277344 198.019531 290.363281 C 197.726562 289.96875 197.457031 289.5625 197.210938 289.136719 C 197.144531 289.03125 197.089844 288.914062 197.027344 288.804688 L 197.023438 288.648438 C 197.109375 288.167969 197.238281 287.695312 197.402344 287.234375 C 197.0625 287.886719 196.992188 287.929688 196.644531 288.117188 C 196.160156 287.1875 195.753906 286.238281 195.425781 285.421875 C 195.503906 285.167969 195.667969 285.003906 195.925781 284.933594 C 196.179688 285.183594 195.976562 285.472656 195.90625 285.695312 C 196.0625 285.839844 196.1875 285.304688 196.441406 285.046875 C 196.484375 285.167969 196.535156 285.289062 196.582031 285.410156 C 196.296875 285.726562 196.203125 286.160156 196.558594 285.734375 C 196.609375 285.738281 196.652344 285.726562 196.695312 285.707031 C 196.746094 285.828125 196.785156 285.953125 196.835938 286.074219 C 197.347656 287.324219 198.09375 288.410156 199.074219 289.335938 C 198.140625 288.097656 197.492188 286.726562 197.132812 285.21875 C 197.300781 284.886719 197.347656 284.609375 197.125 285.15625 L 197.109375 285.15625 L 197.105469 285.136719 C 196.988281 284.730469 196.882812 284.335938 196.78125 283.96875 C 197.238281 283.519531 197.742188 284.277344 198.058594 283.980469 C 197.277344 282.234375 195.417969 281.382812 194.78125 279.5 C 195.308594 279.523438 195.832031 279.507812 196.355469 279.457031 C 196.71875 278.007812 194.339844 276.445312 194.152344 274.714844 C 194.652344 274.949219 194.480469 275.59375 194.738281 276.101562 C 194.808594 271.164062 195.5625 266.332031 197.003906 261.609375 L 195.347656 260.25 L 196.527344 258.996094 C 197.386719 254.242188 197.523438 249.464844 196.933594 244.667969 C 196.953125 243.101562 198.191406 243.828125 198.730469 243.136719 C 199.195312 239.742188 197.390625 238.734375 197.304688 235.425781 C 197.78125 235.929688 199.171875 236.832031 199.371094 235.4375 C 198.90625 235.128906 198.148438 234.878906 198.546875 234.023438 L 199.019531 234.527344 C 199.863281 233.792969 199.226562 232.9375 199.726562 231.296875 C 199.820312 229.785156 199.679688 228.296875 199.304688 226.828125 C 198.929688 225.363281 198.335938 223.992188 197.527344 222.710938 C 197.996094 220.105469 199.316406 223.199219 199.738281 222.738281 C 198.910156 224.515625 199.894531 224.058594 200.429688 224.527344 C 200.0625 223.496094 199.90625 222.277344 201.171875 221.914062 C 201.390625 220.730469 201.246094 219.589844 200.738281 218.492188 C 201.066406 219.21875 200.34375 219.722656 199.875 219.023438 C 200.429688 217.957031 200.320312 215.0625 201.808594 215.410156 C 202.324219 208.925781 203.613281 201.757812 204.574219 194.855469 C 203.972656 193.578125 204.144531 195.695312 203.695312 194.972656 C 202.933594 193.132812 204.414062 193.714844 203.8125 192.242188 L 204.550781 192.921875 C 204.558594 190.699219 204.152344 188.554688 203.328125 186.488281 C 204.210938 186.957031 204.351562 185.007812 204.65625 186.714844 C 204.648438 185.734375 209 185.234375 208.257812 184.367188 L 204.207031 184.828125 C 203.832031 184.714844 204.273438 183.414062 203.996094 183.507812 C 204.890625 182.792969 205.957031 181.917969 206.050781 181.339844 C 207.082031 181.21875 206.625 182.628906 206.488281 183.417969 C 208.101562 183.796875 207.964844 180.917969 209.28125 182.304688 C 209.289062 180.570312 208.402344 182.410156 207.960938 181.300781 L 208.554688 179.882812 L 207.816406 180.933594 C 207.527344 179.621094 206.347656 178.992188 207.53125 177.492188 L 206.210938 175.515625 C 207.53125 175.558594 206.652344 174.304688 207.105469 173.476562 L 207.835938 174.167969 C 207.894531 173.28125 208.246094 172.535156 208.890625 171.925781 C 209.914062 172.777344 208.4375 172.9375 209.464844 173.398438 L 210.066406 172.183594 C 209.332031 172.066406 208.898438 171.148438 208.296875 171.996094 C 207.925781 171.683594 207.605469 171.324219 207.339844 170.917969 C 207.074219 170.511719 206.871094 170.074219 206.730469 169.609375 C 206.59375 169.140625 206.523438 168.667969 206.523438 168.179688 C 206.523438 167.695312 206.59375 167.21875 206.734375 166.753906 C 208.21875 165.621094 207.597656 168.398438 208.929688 168.050781 C 209.988281 165.042969 206.347656 163.691406 206.816406 161.902344 C 207.738281 159.679688 206.558594 159.605469 206.898438 157.242188 C 207.613281 158.140625 208.113281 155.769531 209.003906 155.488281 L 209.714844 156.574219 C 209.582031 155.8125 210.042969 155.191406 210.625 155.515625 C 209.449219 155.4375 210.113281 152.285156 209.863281 150.566406 L 208.832031 150.664062 C 208.570312 149.164062 208.613281 147.671875 208.96875 146.1875 C 209.035156 144.132812 208.078125 144.421875 207.308594 142.675781 C 207.792969 142.402344 208.3125 142.273438 208.871094 142.296875 C 209.425781 142.316406 209.933594 142.480469 210.398438 142.789062 C 209.796875 143.222656 209.914062 144.183594 209.441406 145 C 209.800781 147.679688 211.488281 150.019531 210.554688 152.4375 C 212.730469 153.96875 210.589844 150.695312 211.652344 149.636719 C 211.769531 149.679688 211.828125 149.765625 211.824219 149.890625 C 211.84375 149.785156 211.886719 149.6875 211.953125 149.601562 C 212.074219 150.554688 212.179688 152.085938 213.351562 152.558594 C 213.386719 151.011719 211.175781 151.023438 212.550781 149.351562 C 212.152344 147.84375 214.238281 147.074219 214.5625 146.273438 C 213.851562 145.183594 211.957031 144.773438 212.761719 142.578125 L 213.898438 143.832031 C 214.425781 141.273438 212.175781 142.246094 212.710938 139.886719 C 212.386719 140.6875 211.570312 138.820312 211.214844 140.398438 C 210.96875 139.761719 210.875 139.101562 210.925781 138.421875 C 210.980469 137.738281 211.175781 137.101562 211.515625 136.507812 C 211.382812 136.132812 211.078125 136.347656 210.640625 136.195312 C 209.429688 137.441406 211.085938 138.632812 209.523438 139.542969 L 210.757812 140.820312 C 209.980469 142.046875 208.800781 141.957031 208.394531 141.03125 C 208.382812 141.417969 208.515625 141.785156 208.210938 142.011719 C 206.011719 141.820312 209.285156 140.5625 207.550781 139.742188 L 207.519531 140.714844 C 206.039062 140.847656 206.730469 138.273438 207.070312 137.078125 C 208.003906 135.835938 208.496094 134.628906 209.523438 134.742188 L 209.59375 136.667969 C 210.59375 135.875 209.585938 134.222656 209.84375 133.160156 C 209.992188 133.117188 210.117188 133.039062 210.21875 132.925781 C 210.121094 132.960938 210.023438 132.972656 209.917969 132.953125 C 210.03125 132.707031 210.207031 132.535156 210.457031 132.433594 C 210.703125 131.507812 210.371094 130.003906 210.878906 129.195312 L 209.949219 129.117188 L 210.433594 129.339844 C 210.222656 130.191406 209.421875 131.246094 208.882812 130.453125 C 208.660156 128.386719 210.480469 128.355469 211.363281 128.058594 C 212.65625 128.789062 210.957031 129.945312 211.226562 131.027344 C 212.71875 130.71875 211.777344 129.089844 213.101562 127.277344 C 214.441406 128.386719 212.597656 129.589844 213.890625 130.316406 C 214.484375 128.761719 213.503906 128.117188 214.238281 126.503906 C 214.890625 126.871094 214.609375 128.53125 215.527344 128.609375 L 216.183594 127.613281 C 215.714844 130.292969 218.148438 127.539062 218.082031 129.6875 C 218.902344 128.839844 217.140625 128.066406 218.382812 126.875 C 217.648438 127.125 216.226562 127.988281 215.914062 126.53125 L 216.671875 125.113281 C 217.527344 124.640625 217.941406 127.023438 218.761719 126.175781 L 218.582031 124.492188 C 218.125 124.449219 217.734375 125.15625 217.222656 124.550781 C 217.902344 123.742188 215.816406 122.691406 215.386719 121.472656 C 215.609375 120.625 215.847656 119.964844 216.4375 119.773438 C 215.574219 117.332031 216.21875 114.609375 215.417969 112.34375 C 216.011719 113.898438 216.957031 112.632812 217.8125 111.972656 C 217.652344 113.574219 219.050781 113.898438 219.976562 113.992188 C 220.039062 113.011719 218.734375 112.070312 218.15625 112.441406 C 219.085938 110.988281 217.429688 111.128906 218.6875 109.953125 C 219.371094 109.164062 219.96875 110.71875 220.5625 110.527344 C 221.011719 108.835938 218.964844 109.675781 219.714844 107.894531 C 219.878906 108.039062 219.894531 108.222656 220.191406 108.132812 C 220.304688 107.925781 220.378906 107.703125 220.414062 107.46875 C 220.449219 107.234375 220.441406 107.003906 220.394531 106.769531 C 220.347656 106.539062 220.261719 106.320312 220.136719 106.121094 C 220.011719 105.917969 219.855469 105.746094 219.667969 105.601562 C 221.738281 104.960938 220.171875 102.554688 221.894531 103.179688 C 221.984375 100.652344 220.839844 103.3125 220.335938 102.6875 C 219.78125 101.515625 220.847656 99.832031 221.269531 99.332031 C 221.164062 99.9375 221.523438 100.597656 221.113281 101.109375 L 222.460938 100.890625 C 224.054688 98.101562 220.140625 98.320312 221.90625 95.679688 C 222.183594 97.328125 222.714844 96.402344 223.402344 97.351562 C 223.207031 96.828125 224.101562 94.644531 222.828125 95.789062 C 223.132812 94.925781 223.527344 94.105469 224.003906 93.328125 C 223.921875 92.261719 223.597656 91.269531 223.03125 90.355469 C 223.535156 89.128906 224.328125 88.132812 225.414062 87.371094 C 225.441406 85.796875 225.78125 84.292969 226.433594 82.855469 C 226.824219 82.371094 227 81.816406 226.957031 81.195312 L 226.847656 81.214844 C 227.214844 80.917969 226.878906 80.667969 226.464844 80.414062 C 226.078125 80.175781 225.585938 79.921875 226.117188 79.398438 C 226.578125 80.109375 226.890625 80.179688 227.183594 80.203125 C 227.5625 80.230469 227.890625 80.375 228.164062 80.636719 C 228.441406 80.761719 228.722656 80.765625 229.007812 80.652344 C 229.074219 80.613281 229.578125 80.484375 229.890625 80.375 L 230.921875 80.019531 C 232.3125 79.402344 233.761719 79.1875 235.269531 79.378906 C 235.289062 79.597656 235.230469 79.789062 235.089844 79.960938 C 234.953125 80.128906 234.773438 80.222656 234.554688 80.246094 C 236.734375 80.199219 238.894531 79.964844 241.035156 79.542969 L 240.96875 79.746094 C 244.492188 79.851562 247.855469 79.167969 251.058594 77.703125 C 250.792969 77.933594 250.796875 78.523438 250.597656 78.757812 C 252.449219 78.851562 255.367188 78.699219 256.453125 77.132812 C 258.800781 78.359375 257.816406 76.484375 260.769531 77.585938 C 260.964844 77.835938 260.53125 77.875 260.355469 77.957031 C 261.605469 78.136719 262.859375 78.15625 264.117188 78.015625 C 267.023438 76.65625 267.527344 74.570312 271.132812 74.738281 C 271.570312 76.804688 269.027344 75.515625 269.15625 77.191406 C 269.8125 76.730469 270.371094 76.234375 271.402344 76.613281 C 270.921875 77.5 271.339844 77.140625 271.03125 77.953125 C 271.839844 78.410156 273.757812 75.410156 273.765625 75.609375 C 273.757812 75.199219 273.476562 75.015625 272.785156 75.15625 C 273.453125 73.769531 276.242188 74.628906 277.886719 73.902344 C 277.328125 73.933594 275.53125 73.738281 276.070312 72.671875 C 276.503906 72.710938 276.925781 72.652344 277.335938 72.5 C 277.742188 72.347656 278.097656 72.109375 278.402344 71.796875 C 279.070312 71.675781 279.753906 71.539062 280.460938 71.359375 C 279.957031 71.878906 279.417969 72.460938 279.667969 73.078125 C 280.085938 73.570312 281.070312 74.640625 280.25 75.316406 C 282.183594 75.410156 283.40625 73.996094 285.0625 73.480469 L 285.0625 73.898438 C 287.40625 73.449219 289.730469 71.375 291.808594 71.984375 L 290.703125 71.625 C 291.058594 71.339844 292.234375 71.316406 292.808594 70.4375 L 292.84375 70.429688 C 292.878906 71.113281 294.445312 71.5625 293.878906 72.191406 C 294.253906 71.128906 295.382812 70.644531 296.585938 70.21875 C 296.929688 70.265625 297.289062 70.304688 297.699219 70.34375 C 297.613281 70.414062 297.53125 70.492188 297.457031 70.578125 C 298.699219 70.421875 299.664062 70.894531 299.523438 71.417969 C 299.800781 71.070312 300.117188 70.769531 300.480469 70.511719 C 303.003906 70.730469 305.464844 70.421875 307.855469 69.589844 C 311.941406 69.820312 306.96875 70.28125 306.125 70.753906 C 307.855469 71.566406 309.339844 69.691406 310.738281 70.222656 C 310.738281 70.222656 310.691406 70.429688 310.277344 70.5625 C 311.820312 70.40625 313.207031 70.300781 314.523438 70.222656 C 315.726562 70.15625 317.425781 70.070312 317.773438 70.113281 C 318.878906 70.15625 319.996094 70.199219 321.417969 70.253906 C 321.722656 69.847656 322.105469 69.527344 322.554688 69.292969 C 323.007812 69.0625 323.488281 68.933594 323.996094 68.917969 C 324.21875 68.898438 324.449219 68.882812 324.679688 68.863281 C 324.851562 68.808594 324.824219 68.921875 324.78125 69.050781 L 324.710938 69.378906 C 324.609375 69.722656 324.613281 70.0625 324.722656 70.398438 C 324.09375 70.457031 323.539062 72.515625 323.011719 73.269531 C 323.46875 73.695312 323.824219 74.195312 324.082031 74.765625 C 324.183594 75.007812 324.230469 75.261719 324.214844 75.523438 C 324.191406 75.875 324.132812 76.226562 324.046875 76.570312 C 323.871094 77.207031 323.636719 77.824219 323.34375 78.414062 C 322.554688 79.910156 322.085938 81.496094 321.925781 83.175781 L 322.496094 82.214844 C 321.578125 87.183594 319.902344 91.882812 317.464844 96.308594 C 313.628906 126.109375 303.757812 140.324219 295.304688 170.445312 C 295.214844 172.558594 296.652344 169.308594 296.949219 171.082031 C 296.179688 174.183594 295.902344 174.859375 295.015625 177.621094 C 296.289062 175.339844 295.574219 175.539062 295.960938 176.007812 L 296.816406 171.613281 C 297.015625 171.449219 296.917969 171.933594 297.296875 171.613281 C 297.53125 169.890625 297.917969 168.203125 298.445312 166.550781 C 298.070312 169.316406 299.136719 170.464844 297.496094 173.898438 C 297.445312 173.289062 297.507812 172.691406 297.683594 172.105469 C 296.632812 175.03125 297.222656 175.382812 296.144531 177.488281 C 294.960938 180.105469 295.585938 179.570312 294.902344 179.734375 L 291.414062 187.917969 C 291.09375 191.792969 289.851562 195.351562 287.691406 198.585938 C 286.863281 197.277344 289.25 192.914062 288.804688 190.464844 L 286.929688 193.195312 L 287.796875 193.691406 L 286.058594 197.898438 L 285.964844 197.597656 C 286.121094 197.976562 286.167969 198.371094 286.105469 198.777344 C 286.046875 199.183594 285.882812 199.546875 285.625 199.867188 C 285.429688 200.007812 285.03125 200.335938 285.144531 199.839844 L 284.585938 203.082031 C 284.25 200.964844 283.359375 205.667969 282.414062 204.832031 C 281.898438 206.050781 281.464844 207.167969 281.089844 208.210938 C 280.570312 209.742188 280.089844 211.144531 279.644531 212.457031 C 278.601562 215.726562 277.699219 218.558594 276.820312 221.320312 C 275.976562 224.007812 275.144531 226.5625 274.027344 229.515625 C 273.46875 230.992188 272.835938 232.574219 272.082031 234.351562 C 271.6875 235.257812 271.277344 236.199219 270.851562 237.179688 C 270.335938 237.914062 271.125 237.621094 271.503906 237.664062 L 272.875 237.632812 C 271.863281 237.480469 273.90625 236.757812 276.570312 236.058594 C 279.289062 235.316406 282.046875 234.796875 284.851562 234.492188 C 287.390625 234.464844 288.039062 234.652344 285.878906 235.371094 L 292.730469 233.914062 C 294.765625 234.128906 296.804688 234.167969 298.847656 234.039062 C 299.679688 233.988281 300.511719 233.9375 301.363281 233.886719 C 301.984375 233.824219 302.613281 233.761719 303.265625 233.695312 C 305.855469 233.386719 308.703125 232.890625 312.179688 232.773438 L 311.886719 233.328125 C 314.785156 232.191406 317.789062 231.515625 320.894531 231.292969 L 320.324219 232.402344 C 325.09375 232.539062 323.632812 229.808594 328.882812 229.816406 C 328.71875 228.71875 325.390625 228.5625 324.757812 227.582031 C 326.113281 228.546875 331.683594 228.023438 330.292969 227.386719 C 335.390625 226.296875 333.867188 226.972656 334.34375 227.183594 L 335.8125 226.660156 C 336.117188 226.542969 336.40625 226.394531 336.679688 226.210938 C 338.492188 226.039062 336.878906 227.648438 336.632812 228.320312 C 336.851562 228.039062 337.125 227.824219 337.449219 227.679688 C 337.777344 227.53125 338.117188 227.464844 338.472656 227.484375 C 339.085938 227.492188 339.507812 227.699219 339.984375 227.734375 L 339.054688 228.351562 L 339.960938 228.417969 L 339.875 228.652344 C 340.738281 228.765625 340.203125 231.03125 339.292969 232.664062 Z M 339.292969 232.664062 " fill-opacity="1" fill-rule="nonzero"/></g><path fill="#ffbd25" d="M 297.804688 59.265625 C 297.933594 59.183594 298.058594 59.097656 298.175781 59 C 297.953125 59.097656 297.84375 59.183594 297.804688 59.265625 Z M 297.804688 59.265625 " fill-opacity="1" fill-rule="nonzero"/><path fill="#ffbd25" d="M 311.449219 363.175781 C 311.414062 363.078125 311.347656 363.019531 311.25 362.996094 C 311.292969 363.097656 311.355469 363.167969 311.449219 363.175781 Z M 311.449219 363.175781 " fill-opacity="1" fill-rule="nonzero"/><path fill="#ffbd25" d="M 317.214844 348.199219 C 317.097656 348.558594 316.964844 348.964844 316.785156 349.507812 C 316.964844 348.964844 317.105469 348.539062 317.214844 348.199219 Z M 317.214844 348.199219 " fill-opacity="1" fill-rule="nonzero"/><path fill="#ffbd25" d="M 201.148438 117.242188 C 200.542969 117.898438 200.054688 118.628906 199.675781 119.433594 L 200.105469 120.269531 Z M 201.148438 117.242188 " fill-opacity="1" fill-rule="nonzero"/><path fill="#ffbd25" d="M 189.738281 169.382812 C 189.429688 167.855469 187.761719 173.089844 188.605469 173.933594 Z M 189.738281 169.382812 " fill-opacity="1" fill-rule="nonzero"/><path fill="#ffbd25" d="M 187.054688 192.003906 C 186.851562 190.75 188.171875 186.703125 187.023438 186.347656 C 188.050781 187.917969 186.042969 190.9375 187.054688 192.003906 Z M 187.054688 192.003906 " fill-opacity="1" fill-rule="nonzero"/><path fill="#ffbd25" d="M 194.335938 300.992188 C 194.933594 301.042969 194.195312 300.167969 193.59375 299.453125 C 193.003906 298.726562 192.460938 298.1875 193.09375 299.199219 C 192.53125 299.039062 193.496094 300.324219 194.40625 301.121094 C 195.3125 301.910156 195.953125 302.375 194.335938 300.992188 Z M 194.335938 300.992188 " fill-opacity="1" fill-rule="nonzero"/><path fill="#ffbd25" d="M 199.074219 289.335938 C 199.210938 289.507812 199.375 289.640625 199.570312 289.742188 C 199.394531 289.621094 199.230469 289.484375 199.074219 289.335938 Z M 199.074219 289.335938 " fill-opacity="1" fill-rule="nonzero"/><path fill="#ffbd25" d="M 271.046875 345.308594 C 271.417969 343.253906 271.285156 341.230469 270.652344 339.242188 C 270.761719 342.105469 270.773438 344.632812 271.210938 348.003906 C 271.222656 346.746094 271.769531 345.246094 271.046875 345.308594 Z M 271.046875 345.308594 " fill-opacity="1" fill-rule="nonzero"/><path fill="#ffbd25" d="M 268.46875 368.242188 C 268.164062 368.980469 268.585938 371.863281 269.039062 371 C 268.757812 369.640625 269.070312 367.820312 268.46875 368.242188 Z M 268.46875 368.242188 " fill-opacity="1" fill-rule="nonzero"/><path fill="#ffbd25" d="M 290.074219 418.644531 C 288.960938 421.207031 290.046875 420.011719 289.472656 421.964844 C 290.761719 419.804688 291.128906 418.367188 290.074219 418.644531 Z M 290.074219 418.644531 " fill-opacity="1" fill-rule="nonzero"/><path fill="#ffbd25" d="M 291.679688 415.484375 L 292.921875 414.234375 L 291.160156 415.625 Z M 291.679688 415.484375 " fill-opacity="1" fill-rule="nonzero"/><path fill="#ffbd25" d="M 298.984375 400.269531 C 299.054688 400.640625 299.039062 401.007812 298.9375 401.371094 C 299.199219 400.425781 299.402344 399.613281 298.984375 400.269531 Z M 298.984375 400.269531 " fill-opacity="1" fill-rule="nonzero"/><path fill="#ffbd25" d="M 298.121094 402.789062 L 298.46875 403.144531 C 298.511719 402.863281 298.664062 402.34375 298.800781 401.847656 C 298.652344 402.289062 298.410156 402.722656 298.121094 402.789062 Z M 298.121094 402.789062 " fill-opacity="1" fill-rule="nonzero"/><path fill="#ffbd25" d="M 300.734375 398.390625 L 301.082031 395.550781 L 298.636719 398.089844 C 297.9375 401.488281 300.722656 394.753906 300.734375 398.390625 Z M 300.734375 398.390625 " fill-opacity="1" fill-rule="nonzero"/><path fill="#ffbd25" d="M 308.414062 367.351562 C 304.226562 375.984375 309.414062 372.960938 305.511719 380.566406 C 307.910156 377.09375 305.207031 383.410156 305.046875 384.824219 C 306.589844 382.066406 306.335938 377.117188 308.417969 376.027344 C 310.902344 367.484375 305.308594 377.003906 308.414062 367.351562 Z M 308.414062 367.351562 " fill-opacity="1" fill-rule="nonzero"/><path fill="#ffbd25" d="M 304.113281 381.015625 C 303.609375 382.0625 301.878906 383.511719 302.085938 385.265625 C 302.617188 386.027344 304.136719 382.355469 304.113281 381.015625 Z M 304.113281 381.015625 " fill-opacity="1" fill-rule="nonzero"/><path fill="#ffbd25" d="M 310.726562 368.441406 L 312.242188 366.121094 L 312.035156 365.277344 Z M 310.726562 368.441406 " fill-opacity="1" fill-rule="nonzero"/><path fill="#ffbd25" d="M 314.664062 358.9375 L 314.5625 361.722656 C 314.546875 360.785156 316.015625 357.109375 314.664062 358.9375 Z M 314.664062 358.9375 " fill-opacity="1" fill-rule="nonzero"/><path fill="#ffbd25" d="M 319.269531 345.925781 L 319.753906 344.828125 C 319.949219 345.226562 321.601562 342.824219 320.679688 345.894531 C 321.816406 343.660156 320.644531 340.84375 319.269531 345.925781 Z M 319.269531 345.925781 " fill-opacity="1" fill-rule="nonzero"/><path fill="#ffbd25" d="M 328.109375 316.972656 L 329.203125 312.40625 L 328.570312 313.574219 C 327.984375 315.179688 327.589844 317.175781 328.109375 316.972656 Z M 328.109375 316.972656 " fill-opacity="1" fill-rule="nonzero"/><path fill="#ffbd25" d="M 323.589844 312.621094 C 321.898438 313.699219 322.292969 316.792969 320.90625 319.59375 C 321.984375 317.339844 322.878906 315.015625 323.589844 312.621094 Z M 323.589844 312.621094 " fill-opacity="1" fill-rule="nonzero"/><path fill="#ffbd25" d="M 330.664062 313.273438 C 331.523438 312.957031 332.378906 309.84375 331.96875 309.074219 C 331.824219 310.5625 331.386719 311.960938 330.664062 313.273438 Z M 330.664062 313.273438 " fill-opacity="1" fill-rule="nonzero"/><path fill="#ffbd25" d="M 334.890625 293.003906 C 333.707031 298.117188 335.097656 301.394531 332.613281 303.269531 L 333.316406 308.109375 C 334.996094 304.246094 332.875 304.570312 333.902344 301.847656 C 334.855469 300.550781 334.46875 302.386719 335.152344 301.394531 C 336.605469 298.835938 337.421875 296.085938 337.601562 293.148438 C 336.824219 293.808594 335.078125 294.484375 334.890625 293.003906 Z M 334.890625 293.003906 " fill-opacity="1" fill-rule="nonzero"/><path fill="#ffbd25" d="M 326.617188 310.578125 L 328.203125 308.160156 C 327.351562 308.464844 327.910156 306.414062 328.160156 304.929688 C 326.40625 305.121094 327.035156 309.035156 326.617188 310.578125 Z M 326.617188 310.578125 " fill-opacity="1" fill-rule="nonzero"/><path fill="#ffbd25" d="M 341.71875 273.855469 L 343.078125 268.046875 L 342.441406 269.878906 Z M 341.71875 273.855469 " fill-opacity="1" fill-rule="nonzero"/><path fill="#ffbd25" d="M 343.808594 270.332031 L 344.28125 265.722656 L 343.320312 270.347656 Z M 343.808594 270.332031 " fill-opacity="1" fill-rule="nonzero"/><path fill="#ffbd25" d="M 344.730469 268.652344 L 345.609375 264.523438 L 345.335938 265.179688 Z M 344.730469 268.652344 " fill-opacity="1" fill-rule="nonzero"/><path fill="#ffbd25" d="M 347.582031 257.71875 C 347.78125 255.898438 348.382812 254.222656 349.386719 252.6875 L 348.445312 253.554688 C 348.21875 255.0625 346.617188 257.738281 347.582031 257.71875 Z M 347.582031 257.71875 " fill-opacity="1" fill-rule="nonzero"/><path fill="#ffbd25" d="M 337.101562 230.378906 C 337.398438 229.980469 337.585938 229.539062 337.664062 229.054688 C 337.386719 229.441406 337.15625 229.859375 336.972656 230.300781 C 337.027344 230.230469 337.195312 230.097656 337.101562 230.378906 Z M 337.101562 230.378906 " fill-opacity="1" fill-rule="nonzero"/><path fill="#ffbd25" d="M 336.773438 228.878906 C 336.5625 228.972656 336.664062 229.03125 336.21875 229.117188 C 335.625 229.230469 335.027344 229.285156 334.421875 229.273438 L 335.417969 228.703125 L 331.21875 230.550781 C 333.011719 230.429688 334.761719 230.089844 336.46875 229.527344 C 336.734375 229.128906 337.09375 228.859375 337.550781 228.71875 C 337.398438 228.527344 337.046875 228.703125 336.773438 228.878906 Z M 336.773438 228.878906 " fill-opacity="1" fill-rule="nonzero"/><path fill="#ffbd25" d="M 289.515625 194.699219 C 290.441406 190.304688 291.886719 186.753906 293.34375 181.859375 C 292.566406 182.511719 292.882812 178.609375 292.488281 180.542969 L 291.183594 186.101562 L 290.910156 185.109375 C 289.019531 188.6875 290.96875 187.878906 289.164062 191.773438 C 289.839844 192.417969 290.042969 191.441406 289.515625 194.699219 Z M 289.515625 194.699219 " fill-opacity="1" fill-rule="nonzero"/><path fill="#ffbd25" d="M 265.703125 298.628906 L 266.632812 298.847656 C 267.21875 297.769531 266.433594 298.5 265.703125 298.628906 Z M 265.703125 298.628906 " fill-opacity="1" fill-rule="nonzero"/><path fill="#ffbd25" d="M 260.488281 299.890625 L 262.585938 299.40625 L 262.414062 299.144531 Z M 260.488281 299.890625 " fill-opacity="1" fill-rule="nonzero"/><path fill="#ffbd25" d="M 209.097656 139.378906 C 209.210938 139.472656 209.339844 139.539062 209.484375 139.578125 L 209.523438 139.542969 L 209.191406 139.214844 Z M 209.097656 139.378906 " fill-opacity="1" fill-rule="nonzero"/><path fill="#ffbd25" d="M 233.265625 296.027344 C 232.902344 295.910156 232.5625 295.957031 232.242188 296.164062 C 232.5 296.378906 232.824219 296.414062 233.265625 296.027344 Z M 233.265625 296.027344 " fill-opacity="1" fill-rule="nonzero"/><path fill="#ffbd25" d="M 224.953125 296.242188 L 225.003906 296.234375 C 224.953125 296.0625 224.929688 296.097656 224.953125 296.242188 Z M 224.953125 296.242188 " fill-opacity="1" fill-rule="nonzero"/><path fill="#ffbd25" d="M 219.640625 296.152344 L 219.734375 296.113281 C 219.671875 295.992188 219.640625 295.96875 219.640625 296.152344 Z M 219.640625 296.152344 " fill-opacity="1" fill-rule="nonzero"/><path fill="#ffbd25" d="M 268.449219 76.988281 C 267.933594 77.226562 267.554688 76.746094 267.027344 76.652344 C 266.054688 78.109375 269.375 76.386719 267.871094 77.761719 C 268.324219 77.683594 268.730469 77.507812 269.097656 77.234375 L 268.222656 76.089844 C 267.289062 76.699219 268.941406 76.421875 268.449219 76.988281 Z M 268.449219 76.988281 " fill-opacity="1" fill-rule="nonzero"/><path fill="#ffbd25" d="M 212.96875 133.296875 L 212.8125 133.5 C 213.402344 133.460938 213.546875 133.632812 214.019531 132.828125 C 213.320312 131.914062 211.804688 132.808594 211.136719 131.320312 C 211.152344 131.667969 211.0625 131.988281 210.871094 132.28125 C 211.742188 131.90625 212.421875 132.59375 212.96875 133.296875 Z M 212.96875 133.296875 " fill-opacity="1" fill-rule="nonzero"/><path fill="#ffbd25" d="M 210.871094 132.28125 L 210.796875 132.308594 C 210.679688 132.335938 210.566406 132.378906 210.457031 132.433594 C 210.417969 132.617188 210.335938 132.78125 210.21875 132.921875 C 210.507812 132.785156 210.722656 132.570312 210.871094 132.28125 Z M 210.871094 132.28125 " fill-opacity="1" fill-rule="nonzero"/><path fill="#ffbd25" d="M 250.597656 78.757812 L 249.988281 78.722656 C 250.308594 78.921875 250.484375 78.894531 250.597656 78.757812 Z M 250.597656 78.757812 " fill-opacity="1" fill-rule="nonzero"/><path fill="#ffbd25" d="M 200.429688 224.527344 C 200.519531 224.785156 200.621094 225.039062 200.738281 225.285156 C 200.75 224.984375 200.648438 224.734375 200.429688 224.527344 Z M 200.429688 224.527344 " fill-opacity="1" fill-rule="nonzero"/><path fill="#ffbd25" d="M 209.28125 145.59375 C 209.148438 145.777344 209.042969 145.972656 208.96875 146.183594 L 208.949219 146.59375 Z M 209.28125 145.59375 " fill-opacity="1" fill-rule="nonzero"/><path fill="#ffbd25" d="M 269.164062 77.320312 C 269.15625 77.277344 269.15625 77.234375 269.15625 77.191406 L 269.097656 77.234375 Z M 269.164062 77.320312 " fill-opacity="1" fill-rule="nonzero"/><path fill="#ffbd25" d="M 213.171875 74.472656 L 213.667969 73.898438 C 213.464844 74.054688 213.296875 74.246094 213.171875 74.472656 Z M 213.171875 74.472656 " fill-opacity="1" fill-rule="nonzero"/><path fill="#ffbd25" d="M 209.285156 137.085938 L 208.566406 140.234375 L 209.097656 139.378906 C 208.496094 138.800781 210.035156 137.691406 209.285156 137.085938 Z M 209.285156 137.085938 " fill-opacity="1" fill-rule="nonzero"/><path fill="#ffbd25" d="M 250.050781 294.695312 L 249.792969 295.289062 L 250.941406 295.667969 C 250.761719 295.410156 250.316406 294.757812 250.050781 294.695312 Z M 250.050781 294.695312 " fill-opacity="1" fill-rule="nonzero"/><path fill="#ffbd25" d="M 230.066406 292.972656 L 231.746094 293.480469 C 232.269531 292.957031 230.320312 292.054688 230.066406 292.972656 Z M 230.066406 292.972656 " fill-opacity="1" fill-rule="nonzero"/><path fill="#ffbd25" d="M 223.566406 293.488281 C 224.003906 293.160156 225.503906 294.058594 225.578125 292.882812 C 225.066406 294.0625 223.902344 292.375 223.566406 293.488281 Z M 223.566406 293.488281 " fill-opacity="1" fill-rule="nonzero"/><path fill="#ffbd25" d="M 212.632812 294.378906 C 213.789062 293.652344 215.25 294.066406 215.90625 292.832031 C 214.570312 292.859375 213.328125 293.214844 212.179688 293.898438 Z M 212.632812 294.378906 " fill-opacity="1" fill-rule="nonzero"/><path fill="#ffbd25" d="M 182.957031 249.851562 C 182.785156 248.71875 182.480469 247.621094 182.042969 246.5625 C 182.082031 247.027344 181.597656 247.5625 182.316406 247.574219 C 182.078125 248.226562 182.339844 249.578125 182.957031 249.851562 Z M 182.957031 249.851562 " fill-opacity="1" fill-rule="nonzero"/><path fill="#ffbd25" d="M 207.96875 176.664062 C 207.824219 177.652344 208.414062 177.195312 208.554688 177.949219 C 209.003906 177.121094 208.855469 176.566406 207.96875 176.664062 Z M 207.96875 176.664062 " fill-opacity="1" fill-rule="nonzero"/><path fill="#ffbd25" d="M 208.414062 175.453125 L 209.15625 174.984375 L 207.980469 175.503906 Z M 208.414062 175.453125 " fill-opacity="1" fill-rule="nonzero"/><path fill="#ffbd25" d="M 210.238281 169.652344 C 210.390625 169.757812 210.492188 169.898438 210.542969 170.078125 C 210.484375 169.714844 210.417969 169.40625 210.238281 169.652344 Z M 210.238281 169.652344 " fill-opacity="1" fill-rule="nonzero"/><path fill="#ffbd25" d="M 210.230469 170.613281 L 210.667969 170.757812 C 210.617188 170.597656 210.582031 170.429688 210.566406 170.261719 C 210.574219 170.355469 210.542969 170.441406 210.476562 170.511719 C 210.410156 170.582031 210.328125 170.617188 210.230469 170.613281 Z M 210.230469 170.613281 " fill-opacity="1" fill-rule="nonzero"/><path fill="#ffbd25" d="M 209.21875 168.792969 C 209.644531 170.101562 210.109375 167.539062 211.277344 168.957031 L 210.699219 167.859375 Z M 209.21875 168.792969 " fill-opacity="1" fill-rule="nonzero"/><path fill="#ffbd25" d="M 208.964844 157.03125 C 207.570312 160.269531 211.578125 159.277344 210.199219 162.125 C 211.398438 160.84375 210.773438 163.226562 211.050781 163.773438 C 211.664062 162.75 209.929688 160.796875 211.554688 160.445312 C 211.316406 157.179688 208.890625 160.710938 208.964844 157.03125 Z M 208.964844 157.03125 " fill-opacity="1" fill-rule="nonzero"/><path fill="#ffbd25" d="M 208.402344 163.855469 C 209.132812 164.167969 209.449219 162.78125 209.019531 162.253906 C 208.863281 162.644531 207.675781 163.164062 208.402344 163.855469 Z M 208.402344 163.855469 " fill-opacity="1" fill-rule="nonzero"/><path fill="#ffbd25" d="M 211.777344 156.367188 L 211.460938 157.554688 L 212.21875 156.707031 Z M 211.777344 156.367188 " fill-opacity="1" fill-rule="nonzero"/><path fill="#ffbd25" d="M 212.433594 153.992188 L 213.140625 155.085938 C 212.851562 154.714844 213.179688 153.339844 212.433594 153.992188 Z M 212.433594 153.992188 " fill-opacity="1" fill-rule="nonzero"/><path fill="#ffbd25" d="M 214.46875 149.171875 C 214.933594 148.355469 213.058594 147.179688 213.144531 149.105469 L 213.304688 148.699219 C 213.597656 148.867188 214.507812 148.015625 214.46875 149.171875 Z M 214.46875 149.171875 " fill-opacity="1" fill-rule="nonzero"/><path fill="#ffbd25" d="M 213.558594 136.917969 C 213.394531 137.511719 213.511719 138.269531 213.957031 138.230469 L 213.875 136.5 Z M 213.558594 136.917969 " fill-opacity="1" fill-rule="nonzero"/><path fill="#ffbd25" d="M 207.746094 138.761719 C 208.207031 137.957031 208.484375 137.09375 208.582031 136.171875 C 207.238281 136.484375 208.371094 137.742188 207.746094 138.761719 Z M 207.746094 138.761719 " fill-opacity="1" fill-rule="nonzero"/><path fill="#ffbd25" d="M 215.476562 136.953125 C 216.21875 136.894531 216.265625 135.730469 215.6875 135.390625 C 216.105469 135.9375 215.640625 136.558594 215.476562 136.953125 Z M 215.476562 136.953125 " fill-opacity="1" fill-rule="nonzero"/><path fill="#ffbd25" d="M 214.695312 129.269531 C 214.746094 131.199219 216.832031 132.605469 214.890625 133.144531 L 216.730469 135.117188 C 217.375 133.71875 215.449219 133.679688 215.792969 132.6875 C 216.402344 132.253906 216.457031 132.945312 216.878906 132.609375 C 217.269531 132.199219 217.5 131.714844 217.582031 131.15625 C 217.660156 130.59375 217.570312 130.0625 217.3125 129.5625 C 216.722656 129.753906 215.214844 129.875 214.695312 129.269531 Z M 214.695312 129.269531 " fill-opacity="1" fill-rule="nonzero"/><path fill="#ffbd25" d="M 211.046875 133.449219 C 209.425781 133.390625 210.984375 135 210.964844 135.582031 L 211.878906 134.738281 C 211.140625 134.796875 211.167969 134.023438 211.046875 133.449219 Z M 211.046875 133.449219 " fill-opacity="1" fill-rule="nonzero"/><path fill="#ffbd25" d="M 216.992188 122.308594 L 217.082031 120.140625 L 216.84375 120.804688 Z M 216.992188 122.308594 " fill-opacity="1" fill-rule="nonzero"/><path fill="#ffbd25" d="M 217.785156 121.074219 L 218.246094 121.121094 L 217.757812 119.34375 Z M 217.785156 121.074219 " fill-opacity="1" fill-rule="nonzero"/><path fill="#ffbd25" d="M 218.660156 119.242188 L 218.789062 120.550781 L 218.785156 119.011719 Z M 218.660156 119.242188 " fill-opacity="1" fill-rule="nonzero"/><path fill="#ffbd25" d="M 219.296875 116.527344 C 219.207031 116.179688 219.234375 115.839844 219.371094 115.507812 C 219.511719 115.179688 219.734375 114.921875 220.042969 114.742188 L 219.304688 114.976562 C 219.355469 115.539062 218.378906 116.429688 219.296875 116.527344 Z M 219.296875 116.527344 " fill-opacity="1" fill-rule="nonzero"/><path fill="#ffbd25" d="M 230.753906 68.292969 C 232.300781 67.683594 233.902344 67.28125 235.550781 67.089844 C 235.15625 66.609375 236.40625 65.488281 235.730469 65.824219 L 233.734375 66.640625 L 233.957031 66.023438 C 232.402344 65.605469 233.148438 67.097656 231.527344 66.882812 C 231.511719 67.742188 231.859375 67.558594 230.753906 68.292969 Z M 230.753906 68.292969 " fill-opacity="1" fill-rule="nonzero"/></svg>