<svg xmlns="http://www.w3.org/2000/svg" xmlns:xlink="http://www.w3.org/1999/xlink" width="720" zoomAndPan="magnify" viewBox="0 0 540 540.000001" height="720" preserveAspectRatio="xMidYMid meet" version="1.0"><path fill="#000000" d="M 240.75 380.367188 C 244.601562 381.570312 249.585938 380.472656 253.316406 379.222656 C 257.84375 377.707031 263.164062 375.023438 264.738281 371.21875 C 256.464844 366.332031 242.976562 372.042969 240.75 380.367188 Z M 242.65625 304.507812 C 279.550781 319.191406 316.597656 333.265625 353.828125 346.820312 C 375.257812 354.625 396.191406 363.527344 417.410156 370.835938 C 433.246094 376.292969 448.589844 383.875 461.953125 391.804688 C 466.644531 394.585938 471.167969 398.242188 476.804688 399.046875 C 476.449219 396.699219 473.582031 395.441406 471.855469 394.472656 C 464.941406 390.585938 458.382812 386.792969 451.675781 383.417969 C 423.519531 369.242188 394.578125 357.25 364.488281 345.296875 C 344.640625 337.410156 323.710938 331.136719 303.570312 322.804688 C 279.035156 312.652344 252.839844 305.539062 227.042969 297.261719 C 226.75 297.347656 226.292969 297.273438 226.285156 297.644531 C 231.761719 300.058594 237.105469 302.296875 242.65625 304.507812 Z M 218.667969 273.628906 C 212.042969 277.792969 203.5 280.042969 197.730469 285.066406 C 211.136719 315.859375 224.960938 346.238281 238.847656 376.554688 C 243.15625 369.433594 250.375 365.226562 262.453125 365.882812 C 251.914062 345.933594 242.710938 324.65625 233.136719 303.742188 C 227.316406 302.4375 213.699219 293.410156 217.90625 286.207031 C 219.171875 284.046875 222.640625 285.101562 225.140625 283.539062 C 221.039062 282.183594 221.730469 276.027344 218.667969 273.628906 Z M 300.144531 231.695312 C 288.292969 235.902344 276.589844 240.605469 265.117188 245.039062 C 241.777344 254.054688 220.199219 264.433594 199.632812 275.914062 C 189.140625 281.773438 179.429688 287.667969 169.554688 293.832031 C 159.75 299.953125 150.691406 307.125 141.378906 314.035156 C 125.398438 325.902344 109.328125 339.269531 95.695312 352.917969 C 93.71875 354.898438 92.113281 357.738281 89.222656 358.636719 C 86.992188 352.648438 86.535156 346.882812 84.652344 341.484375 C 82.796875 336.171875 80.230469 331.351562 77.417969 326.617188 C 71.84375 317.230469 67.769531 307.242188 62.1875 297.644531 C 61.796875 303.8125 65.621094 309.355469 68.28125 314.417969 C 76.617188 330.292969 82.972656 347.0625 90.363281 363.976562 C 95.1875 360.652344 98.300781 355.683594 102.546875 351.777344 C 106.785156 347.875 110.828125 343.832031 115.109375 339.960938 C 123.613281 332.269531 133.054688 325.433594 142.140625 318.230469 C 160.257812 303.875 179.757812 290.476562 200.773438 278.964844 C 211.257812 273.222656 222.246094 267.851562 233.136719 262.574219 C 244.386719 257.121094 256.371094 253.15625 268.164062 248.46875 C 279.664062 243.898438 291.066406 238.648438 302.808594 234.363281 C 314.492188 230.101562 327.15625 227.324219 337.457031 219.878906 C 337.414062 219.414062 337.34375 218.976562 336.695312 219.117188 C 324.707031 223.429688 312.21875 227.410156 300.144531 231.695312 Z M 449.769531 303.742188 C 445.183594 288.585938 438.992188 273.992188 434.539062 258.761719 C 432.269531 250.976562 430.671875 243 427.6875 235.507812 C 424.691406 227.980469 421.890625 220.519531 420.074219 212.636719 C 420.054688 212.402344 420.015625 212.183594 419.695312 212.253906 C 385.363281 223.886719 352.042969 237.046875 318.800781 249.613281 C 302.425781 255.800781 286.503906 262.871094 270.066406 269.054688 C 253.609375 275.246094 237.609375 283.046875 220.574219 288.113281 C 221.894531 292.589844 226.4375 293.039062 230.851562 294.214844 C 238.894531 296.351562 247.410156 300.164062 254.839844 302.21875 C 254.742188 296.148438 258.601562 292.011719 262.070312 290.78125 C 261.757812 296.058594 257.910156 297.796875 257.503906 302.980469 C 264.472656 305.277344 271.644531 307.375 278.445312 309.84375 C 279.867188 305.550781 279.773438 299.738281 285.296875 299.550781 C 284.761719 304.097656 282.171875 306.585938 281.109375 310.605469 C 288.289062 312.183594 293.695312 315.539062 300.527344 317.46875 C 302.8125 313.148438 303.464844 307.195312 308.140625 305.269531 C 308.722656 310.324219 304.46875 313.773438 303.570312 318.613281 C 311.738281 322.632812 320.847656 325.714844 329.839844 328.902344 C 331.117188 324.0625 331.476562 316.332031 336.695312 316.707031 C 335.839844 321.570312 333.269531 324.710938 332.890625 330.046875 C 339.871094 332.585938 346.867188 335.113281 354.207031 337.289062 C 356.425781 332.136719 357.042969 325.390625 362.203125 323.1875 C 363.484375 328.273438 357.550781 332.417969 357.253906 338.433594 C 363.332031 340.738281 369.082031 343.363281 375.53125 345.296875 C 378.023438 340.042969 377.8125 332.078125 383.523438 330.046875 C 383.4375 335.695312 379.394531 340.636719 378.195312 346.4375 C 385.839844 349.585938 393.253906 352.960938 401.417969 355.589844 C 403.621094 351.4375 403.542969 345.007812 408.652344 343.769531 C 409.121094 348.714844 405.226562 352.519531 403.703125 356.730469 C 412.707031 360.933594 421.789062 365.050781 430.734375 369.3125 C 433.515625 363.960938 433.46875 355.78125 439.109375 353.300781 C 440.304688 359.167969 434.503906 364.371094 433.78125 370.835938 C 439.816406 373.308594 444.832031 376.796875 451.292969 378.84375 C 453.175781 375.390625 452.332031 369.207031 457.003906 368.550781 C 457.8125 373.011719 454.75 376.640625 453.960938 380.746094 C 462.464844 385.070312 471.496094 390.886719 479.464844 394.472656 C 469.640625 364.25 459.003906 334.234375 449.769531 303.742188 Z M 148.996094 304.125 C 158.160156 295.894531 169.414062 289.753906 179.835938 282.777344 C 176.773438 280.324219 174.199219 275.539062 174.886719 270.578125 C 178.269531 273.160156 179.445312 277.957031 181.355469 282.015625 C 189.414062 276.738281 198.226562 272.21875 206.867188 267.527344 C 205.980469 264.203125 202.246094 260.15625 203.4375 257.234375 C 207.644531 257.855469 207.710938 262.617188 209.148438 266.003906 C 220.695312 260.664062 231.574219 254.65625 243.414062 249.613281 C 241.4375 246.890625 239.292969 242.308594 239.988281 238.175781 C 243.941406 239.9375 243.859375 245.738281 246.460938 248.851562 C 256.699219 243.726562 268.878906 240.542969 279.203125 235.507812 C 277.484375 232.527344 273.636719 229.648438 273.492188 226.359375 C 278.328125 227.234375 279.734375 231.546875 282.25 234.746094 C 290.902344 230.957031 299.84375 227.453125 309.664062 224.832031 C 308.449219 221.855469 305.089844 221.027344 304.714844 217.210938 C 309.96875 216.847656 309.761719 222.609375 313.46875 223.308594 C 314.699219 223.542969 318.042969 222.089844 319.941406 221.402344 C 326.539062 219.019531 333.128906 216.074219 339.738281 215.304688 C 335.167969 206.875 325.847656 200.078125 318.800781 192.429688 C 313.488281 186.667969 312.746094 183.175781 302.046875 183.664062 C 290.089844 184.207031 277.613281 185.890625 266.261719 188.238281 C 232.25 195.269531 200.609375 203.933594 172.980469 216.445312 C 154.136719 224.980469 137.417969 235.734375 120.820312 245.039062 C 103.546875 254.722656 88.617188 268.257812 74.753906 280.109375 C 70.363281 283.863281 66.257812 289.480469 63.332031 293.070312 C 72.902344 312.332031 85.914062 328.148438 91.125 351.777344 C 103 340.761719 118.613281 327.488281 133.003906 315.5625 C 135.484375 313.507812 145.050781 308.296875 145.949219 305.648438 C 147.46875 301.179688 140.671875 297.109375 142.523438 292.6875 C 146.679688 294.296875 148.214844 300.386719 148.996094 304.125 Z M 188.210938 184.804688 C 186.160156 180.371094 181.453125 170.550781 176.789062 169.558594 C 170.597656 168.242188 162.570312 173.054688 160.035156 176.421875 C 155.558594 182.371094 161.542969 191.304688 164.222656 197.769531 C 166.59375 203.476562 169.171875 208.65625 171.078125 213.398438 C 178.722656 209.488281 187.519531 206.730469 195.824219 203.484375 C 192.992188 197.257812 191.453125 191.816406 188.210938 184.804688 Z M 165.367188 155.453125 C 162.65625 157.058594 158.792969 157.511719 156.230469 159.265625 C 157.347656 163.738281 156.207031 170.472656 157.753906 174.515625 C 161.753906 169.878906 167.59375 167.085938 175.265625 166.125 C 173.378906 162.675781 169.238281 158.1875 165.367188 155.453125 Z M 155.847656 155.453125 C 158.136719 154.691406 159.945312 153.453125 162.320312 152.785156 C 160.34375 149.429688 157.019531 147.421875 154.707031 144.398438 C 155.003906 148.164062 155.222656 152.015625 155.847656 155.453125 Z M 182.121094 168.796875 C 190.253906 177.167969 194.378906 189.558594 199.632812 200.816406 C 223.832031 192.773438 252.367188 184.285156 282.25 180.613281 C 290.996094 179.539062 306.113281 176.476562 313.46875 179.851562 C 316.519531 181.25 318.902344 185.351562 321.847656 188.617188 C 327.285156 194.648438 332.507812 199.058594 338.597656 205.390625 C 340.679688 207.554688 345.273438 212.035156 345.070312 215.683594 C 344.875 219.152344 339.78125 224.136719 337.074219 225.976562 C 329.636719 231.042969 318.394531 234.09375 308.519531 237.414062 C 298.667969 240.726562 289.238281 245.304688 279.964844 248.851562 C 260.046875 256.46875 240.519531 263.246094 223.617188 272.484375 C 225.296875 275.25 225.933594 279.0625 228.1875 281.253906 C 284.023438 259.050781 338.769531 234.953125 397.230469 215.304688 C 405.628906 212.480469 413.828125 208.625 422.738281 207.296875 C 425.535156 210.820312 425.324219 215.417969 426.546875 219.496094 C 427.679688 223.269531 429.546875 226.835938 431.117188 230.550781 C 434.324219 238.160156 436.121094 246.402344 438.347656 254.566406 C 442.652344 270.34375 449.566406 285.078125 454.339844 301.457031 C 462.296875 328.75 471.855469 356.746094 481.753906 384.179688 C 483.21875 388.246094 485.554688 392.464844 484.417969 397.140625 C 483.78125 399.753906 479.785156 402.863281 477.566406 403.238281 C 472.839844 404.042969 466.828125 399.71875 462.71875 397.140625 C 441.09375 383.566406 416.601562 374.007812 391.136719 364.738281 C 340.605469 346.332031 290.902344 327.132812 240.371094 307.9375 C 246.523438 323.160156 254.214844 340.21875 262.832031 355.589844 C 263.90625 357.503906 265.5 360.582031 266.640625 363.59375 C 267.75 366.527344 269.5625 370.699219 269.304688 372.742188 C 268.761719 377.046875 261.996094 380.199219 257.121094 382.273438 C 252.230469 384.355469 244.003906 387.296875 239.226562 385.324219 C 236.210938 384.074219 234.679688 378.136719 232.757812 373.886719 C 227.117188 361.429688 221.695312 349.394531 216.003906 337.289062 C 212.035156 328.851562 209.542969 320.171875 205.34375 312.511719 C 200.960938 304.511719 197.59375 296.441406 194.683594 287.734375 C 166.066406 304.371094 139.664062 324.539062 114.730469 346.058594 C 111.117188 349.175781 107.027344 353.007812 102.925781 357.113281 C 99.785156 360.257812 94.707031 367.792969 90.746094 367.785156 C 85.46875 367.777344 82.425781 356.789062 80.84375 352.917969 C 75.558594 339.96875 71.761719 330.410156 65.996094 318.613281 C 62.074219 310.582031 54.4375 301.515625 59.90625 290.019531 C 61.644531 286.359375 68.445312 279.558594 71.707031 276.679688 C 99.058594 252.53125 133.015625 230.042969 166.507812 214.160156 C 163.167969 204.03125 155.957031 193.429688 153.5625 181.375 C 152.132812 174.152344 152.84375 166.472656 152.042969 159.265625 C 151.265625 152.289062 149.605469 145.722656 150.136719 138.679688 C 153.726562 135.292969 157.015625 140.628906 160.035156 144.015625 C 164.203125 148.691406 170.417969 152.855469 174.886719 157.742188 C 178.3125 161.488281 181.183594 164.136719 182.121094 168.796875 " fill-opacity="1" fill-rule="evenodd"/><path fill="#877b7b" d="M 154.707031 144.398438 C 157.019531 147.421875 160.34375 149.429688 162.320312 152.785156 C 159.945312 153.453125 158.136719 154.695312 155.847656 155.453125 C 155.222656 152.015625 155.003906 148.164062 154.707031 144.398438 " fill-opacity="1" fill-rule="evenodd"/><path fill="#e2dac5" d="M 175.265625 166.128906 C 167.59375 167.085938 161.75 169.878906 157.753906 174.515625 C 156.207031 170.472656 157.34375 163.738281 156.230469 159.265625 C 158.792969 157.511719 162.65625 157.0625 165.367188 155.453125 C 169.238281 158.1875 173.378906 162.679688 175.265625 166.128906 " fill-opacity="1" fill-rule="evenodd"/><path fill="#ea2a2a" d="M 195.824219 203.488281 C 187.519531 206.730469 178.722656 209.488281 171.078125 213.398438 C 169.171875 208.65625 166.59375 203.476562 164.222656 197.769531 C 161.542969 191.304688 155.558594 182.371094 160.035156 176.421875 C 162.570312 173.054688 170.597656 168.242188 176.789062 169.558594 C 181.453125 170.550781 186.160156 180.371094 188.210938 184.804688 C 191.453125 191.816406 192.992188 197.257812 195.824219 203.488281 " fill-opacity="1" fill-rule="evenodd"/><path fill="#000000" d="M 301.289062 201.960938 C 302.582031 202.441406 303.980469 202.824219 305.476562 203.105469 C 306.355469 202.257812 305.347656 201.617188 305.476562 200.433594 C 303.367188 200.300781 301.453125 199.507812 301.289062 201.960938 Z M 305.09375 197.007812 C 305.109375 197.007812 305.523438 196.53125 305.855469 196.625 C 308.398438 197.34375 309.777344 201.277344 308.902344 203.867188 C 307.375 208.382812 298.683594 205.796875 298.242188 201.960938 C 297.820312 198.300781 301.304688 196.585938 305.09375 197.007812 " fill-opacity="1" fill-rule="evenodd"/><path fill="#efcc03" d="M 305.476562 200.4375 C 305.34375 201.617188 306.355469 202.257812 305.476562 203.105469 C 303.980469 202.824219 302.582031 202.441406 301.289062 201.960938 C 301.453125 199.503906 303.367188 200.300781 305.476562 200.4375 " fill-opacity="1" fill-rule="evenodd"/><path fill="#b8cfe8" d="M 318.800781 288.113281 C 319.648438 292.425781 324.363281 294.613281 327.9375 296.121094 C 352.449219 306.445312 380.242188 314.582031 402.941406 325.855469 C 406.628906 327.6875 410.570312 330.449219 414.742188 330.046875 C 414.796875 324.417969 411.332031 319.476562 409.414062 314.035156 C 407.53125 308.695312 405.710938 303.078125 403.699219 297.644531 C 399.617188 286.582031 398.4375 274.058594 391.519531 265.242188 C 365.226562 270.808594 343.585938 281.035156 318.800781 288.113281 Z M 479.464844 394.472656 C 471.496094 390.886719 462.464844 385.070312 453.957031 380.746094 C 454.75 376.640625 457.8125 373.011719 457.003906 368.550781 C 452.328125 369.207031 453.175781 375.390625 451.292969 378.84375 C 444.832031 376.796875 439.8125 373.308594 433.78125 370.835938 C 434.5 364.371094 440.304688 359.171875 439.109375 353.300781 C 433.46875 355.78125 433.511719 363.960938 430.734375 369.3125 C 421.789062 365.050781 412.703125 360.933594 403.699219 356.730469 C 405.222656 352.519531 409.121094 348.714844 408.652344 343.769531 C 403.539062 345.007812 403.617188 351.4375 401.417969 355.589844 C 393.253906 352.960938 385.839844 349.585938 378.191406 346.4375 C 379.394531 340.640625 383.433594 335.695312 383.523438 330.046875 C 377.808594 332.078125 378.023438 340.042969 375.527344 345.296875 C 369.082031 343.363281 363.332031 340.738281 357.253906 338.433594 C 357.550781 332.417969 363.484375 328.277344 362.203125 323.1875 C 357.042969 325.390625 356.421875 332.140625 354.207031 337.289062 C 346.863281 335.113281 339.871094 332.585938 332.886719 330.046875 C 333.269531 324.710938 335.839844 321.570312 336.695312 316.707031 C 331.472656 316.332031 331.113281 324.0625 329.839844 328.902344 C 320.84375 325.714844 311.738281 322.632812 303.570312 318.613281 C 304.46875 313.773438 308.722656 310.324219 308.140625 305.269531 C 303.460938 307.195312 302.8125 313.148438 300.527344 317.46875 C 293.695312 315.539062 288.289062 312.1875 281.105469 310.605469 C 282.171875 306.585938 284.761719 304.097656 285.296875 299.550781 C 279.773438 299.738281 279.863281 305.550781 278.441406 309.84375 C 271.644531 307.375 264.472656 305.277344 257.503906 302.980469 C 257.910156 297.796875 261.753906 296.058594 262.070312 290.78125 C 258.601562 292.011719 254.742188 296.148438 254.839844 302.21875 C 247.410156 300.164062 238.894531 296.351562 230.851562 294.214844 C 226.4375 293.039062 221.894531 292.589844 220.574219 288.113281 C 237.609375 283.046875 253.609375 275.246094 270.066406 269.054688 C 286.503906 262.871094 302.425781 255.800781 318.800781 249.613281 C 352.042969 237.046875 385.363281 223.890625 419.691406 212.253906 C 420.015625 212.183594 420.050781 212.402344 420.074219 212.636719 C 421.890625 220.519531 424.691406 227.980469 427.6875 235.507812 C 430.671875 243 432.265625 250.976562 434.539062 258.761719 C 438.988281 273.992188 445.179688 288.585938 449.769531 303.742188 C 459 334.234375 469.636719 364.25 479.464844 394.472656 " fill-opacity="1" fill-rule="evenodd"/><path fill="#efcc03" d="M 336.695312 219.117188 C 337.34375 218.976562 337.414062 219.414062 337.457031 219.878906 C 327.15625 227.324219 314.496094 230.101562 302.808594 234.363281 C 291.066406 238.648438 279.664062 243.898438 268.164062 248.46875 C 256.371094 253.15625 244.386719 257.121094 233.136719 262.574219 C 222.246094 267.851562 211.257812 273.222656 200.773438 278.964844 C 179.757812 290.476562 160.257812 303.875 142.140625 318.230469 C 133.054688 325.433594 123.613281 332.269531 115.109375 339.960938 C 110.828125 343.832031 106.785156 347.875 102.546875 351.777344 C 98.300781 355.683594 95.1875 360.652344 90.363281 363.976562 C 82.972656 347.0625 76.617188 330.292969 68.28125 314.417969 C 65.621094 309.355469 61.796875 303.8125 62.1875 297.644531 C 67.769531 307.242188 71.84375 317.230469 77.417969 326.617188 C 80.230469 331.351562 82.796875 336.171875 84.652344 341.484375 C 86.535156 346.882812 86.992188 352.648438 89.222656 358.636719 C 92.113281 357.738281 93.71875 354.898438 95.695312 352.921875 C 109.328125 339.269531 125.398438 325.902344 141.378906 314.035156 C 150.691406 307.125 159.75 299.953125 169.554688 293.832031 C 179.429688 287.667969 189.140625 281.773438 199.632812 275.914062 C 220.199219 264.433594 241.773438 254.054688 265.117188 245.039062 C 276.589844 240.605469 288.292969 235.902344 300.144531 231.695312 C 312.21875 227.410156 324.707031 223.429688 336.695312 219.117188 " fill-opacity="1" fill-rule="evenodd"/><path fill="#000000" d="M 380.855469 282.398438 C 366.273438 287.105469 349.660156 289.785156 335.929688 295.355469 C 356.269531 302.566406 376.382812 310.003906 396.085938 317.847656 C 392.40625 304.632812 388.53125 291.613281 380.855469 282.398438 Z M 396.851562 288.113281 C 395.730469 283.878906 394.988281 279.238281 393.421875 275.152344 C 392.691406 273.25 390.492188 268.667969 388.855469 269.054688 C 367.890625 274.023438 345.882812 283.792969 324.890625 290.402344 C 328.800781 293.007812 333.390625 288.839844 338.21875 287.351562 C 351.074219 283.390625 363.066406 279.714844 377.050781 276.679688 C 379.828125 276.074219 383.03125 274.332031 385.046875 274.773438 C 388.515625 275.53125 390.382812 281.449219 391.136719 285.066406 C 393.9375 287.617188 393.722656 291.261719 394.945312 294.976562 C 397.902344 303.972656 403.421875 311.828125 404.464844 322.042969 C 406.347656 322.324219 408.300781 324.539062 409.792969 323.949219 C 405.324219 312.75 399.988281 299.996094 396.851562 288.113281 Z M 391.519531 265.242188 C 398.4375 274.058594 399.613281 286.582031 403.703125 297.644531 C 405.710938 303.078125 407.53125 308.695312 409.414062 314.035156 C 411.328125 319.476562 414.796875 324.417969 414.742188 330.046875 C 410.570312 330.445312 406.628906 327.6875 402.941406 325.855469 C 380.246094 314.582031 352.449219 306.445312 327.9375 296.121094 C 324.363281 294.613281 319.648438 292.425781 318.796875 288.113281 C 343.585938 281.035156 365.222656 270.808594 391.519531 265.242188 " fill-opacity="1" fill-rule="evenodd"/><path fill="#bcd2e8" d="M 409.792969 323.949219 C 408.300781 324.539062 406.347656 322.324219 404.464844 322.042969 C 403.421875 311.828125 397.902344 303.972656 394.945312 294.976562 C 393.722656 291.261719 393.933594 287.617188 391.136719 285.066406 C 390.382812 281.449219 388.511719 275.53125 385.042969 274.773438 C 383.03125 274.332031 379.828125 276.074219 377.050781 276.679688 C 363.066406 279.714844 351.074219 283.390625 338.21875 287.351562 C 333.394531 288.839844 328.800781 293.007812 324.890625 290.402344 C 345.882812 283.792969 367.890625 274.023438 388.855469 269.054688 C 390.492188 268.667969 392.691406 273.25 393.421875 275.152344 C 394.988281 279.238281 395.726562 283.878906 396.847656 288.113281 C 399.988281 299.996094 405.324219 312.75 409.792969 323.949219 " fill-opacity="1" fill-rule="evenodd"/><path fill="#ea2a2a" d="M 225.140625 283.539062 C 222.636719 285.101562 219.171875 284.046875 217.90625 286.207031 C 213.699219 293.410156 227.316406 302.4375 233.136719 303.742188 C 242.710938 324.65625 251.914062 345.933594 262.453125 365.882812 C 250.375 365.226562 243.15625 369.433594 238.847656 376.554688 C 224.960938 346.238281 211.136719 315.859375 197.730469 285.066406 C 203.5 280.042969 212.039062 277.792969 218.667969 273.628906 C 221.730469 276.03125 221.039062 282.183594 225.140625 283.539062 " fill-opacity="1" fill-rule="evenodd"/><path fill="#bcd2e8" d="M 226.28125 297.644531 C 226.292969 297.273438 226.75 297.347656 227.042969 297.261719 C 252.839844 305.539062 279.035156 312.652344 303.570312 322.804688 C 323.710938 331.136719 344.640625 337.410156 364.484375 345.296875 C 394.574219 357.25 423.519531 369.246094 451.671875 383.417969 C 458.382812 386.792969 464.9375 390.585938 471.851562 394.472656 C 473.578125 395.441406 476.445312 396.699219 476.800781 399.046875 C 471.167969 398.242188 466.644531 394.585938 461.953125 391.804688 C 448.589844 383.875 433.242188 376.292969 417.410156 370.835938 C 396.191406 363.527344 375.257812 354.625 353.824219 346.820312 C 316.597656 333.265625 279.550781 319.191406 242.652344 304.507812 C 237.105469 302.300781 231.761719 300.058594 226.28125 297.644531 " fill-opacity="1" fill-rule="evenodd"/><path fill="#000000" d="M 107.875 319.753906 C 110.519531 322.558594 115.128906 327.078125 113.96875 331.191406 C 110.066406 329.59375 106.503906 324.15625 107.875 319.753906 " fill-opacity="1" fill-rule="evenodd"/><path fill="#c92d2d" d="M 264.738281 371.21875 C 263.164062 375.023438 257.84375 377.707031 253.316406 379.222656 C 249.585938 380.472656 244.597656 381.570312 240.75 380.367188 C 242.976562 372.042969 256.464844 366.332031 264.738281 371.21875 " fill-opacity="1" fill-rule="evenodd"/><path fill="#ffe000" d="M 113.96875 331.191406 C 115.128906 327.078125 110.519531 322.558594 107.875 319.753906 C 106.503906 324.15625 110.066406 329.59375 113.96875 331.191406 Z M 298.242188 201.960938 C 298.683594 205.796875 307.375 208.382812 308.902344 203.867188 C 309.78125 201.273438 308.398438 197.339844 305.855469 196.625 C 305.523438 196.53125 305.109375 197.007812 305.09375 197.007812 C 301.304688 196.585938 297.820312 198.300781 298.242188 201.960938 Z M 142.523438 292.6875 C 140.671875 297.109375 147.46875 301.179688 145.949219 305.648438 C 145.050781 308.296875 135.484375 313.507812 133.003906 315.5625 C 118.613281 327.488281 103 340.761719 91.125 351.777344 C 85.914062 328.148438 72.902344 312.332031 63.332031 293.070312 C 66.257812 289.480469 70.363281 283.863281 74.753906 280.109375 C 88.617188 268.257812 103.546875 254.722656 120.820312 245.039062 C 137.417969 235.734375 154.136719 224.980469 172.980469 216.445312 C 200.609375 203.933594 232.25 195.269531 266.257812 188.238281 C 277.613281 185.890625 290.09375 184.207031 302.046875 183.664062 C 312.746094 183.175781 313.488281 186.667969 318.800781 192.429688 C 325.847656 200.078125 335.167969 206.875 339.742188 215.304688 C 333.128906 216.074219 326.539062 219.019531 319.941406 221.402344 C 318.042969 222.089844 314.699219 223.539062 313.46875 223.308594 C 309.765625 222.609375 309.972656 216.847656 304.714844 217.210938 C 305.089844 221.027344 308.449219 221.855469 309.664062 224.832031 C 299.84375 227.453125 290.902344 230.957031 282.25 234.746094 C 279.734375 231.546875 278.328125 227.234375 273.492188 226.359375 C 273.636719 229.648438 277.484375 232.527344 279.203125 235.507812 C 268.878906 240.542969 256.699219 243.726562 246.460938 248.851562 C 243.855469 245.738281 243.941406 239.9375 239.992188 238.175781 C 239.292969 242.308594 241.4375 246.890625 243.417969 249.613281 C 231.574219 254.65625 220.695312 260.664062 209.148438 266.003906 C 207.710938 262.617188 207.644531 257.855469 203.4375 257.234375 C 202.246094 260.15625 205.980469 264.203125 206.867188 267.527344 C 198.226562 272.21875 189.414062 276.738281 181.355469 282.015625 C 179.445312 277.957031 178.269531 273.160156 174.886719 270.578125 C 174.199219 275.539062 176.773438 280.324219 179.835938 282.777344 C 169.417969 289.753906 158.160156 295.894531 148.996094 304.125 C 148.214844 300.386719 146.679688 294.296875 142.523438 292.6875 " fill-opacity="1" fill-rule="evenodd"/></svg>