<svg xmlns="http://www.w3.org/2000/svg" xmlns:xlink="http://www.w3.org/1999/xlink" width="720" zoomAndPan="magnify" viewBox="0 0 540 540.000001" height="720" preserveAspectRatio="xMidYMid meet" version="1.0"><defs><clipPath id="a4b16d5114"><path d="M 192 201 L 343 201 L 343 475 L 192 475 Z M 192 201 " clip-rule="nonzero"/></clipPath><clipPath id="86c92fcab1"><path d="M 58.128906 203.824219 L 336.5 57.640625 L 482.332031 335.347656 L 203.964844 481.53125 Z M 58.128906 203.824219 " clip-rule="nonzero"/></clipPath><clipPath id="f39c9af4c1"><path d="M 58.128906 203.824219 L 336.5 57.640625 L 482.332031 335.347656 L 203.964844 481.53125 Z M 58.128906 203.824219 " clip-rule="nonzero"/></clipPath><clipPath id="d372b20633"><path d="M 58.128906 203.824219 L 336.5 57.640625 L 482.332031 335.347656 L 203.964844 481.53125 Z M 58.128906 203.824219 " clip-rule="nonzero"/></clipPath><clipPath id="1ea66b3549"><path d="M 108.628906 299.78125 L 318.9375 189.339844 L 414.386719 371.097656 L 204.074219 481.539062 Z M 108.628906 299.78125 " clip-rule="nonzero"/></clipPath><clipPath id="e6fe501d09"><path d="M 108.628906 299.78125 L 318.9375 189.339844 L 414.367188 371.058594 L 204.054688 481.503906 Z M 108.628906 299.78125 " clip-rule="nonzero"/></clipPath><clipPath id="8bdc9d8a8c"><path d="M 211 186 L 286 186 L 286 303 L 211 303 Z M 211 186 " clip-rule="nonzero"/></clipPath><clipPath id="cec94fb0bd"><path d="M 58.128906 203.824219 L 336.5 57.640625 L 482.332031 335.347656 L 203.964844 481.53125 Z M 58.128906 203.824219 " clip-rule="nonzero"/></clipPath><clipPath id="f7c1cdf2b8"><path d="M 58.128906 203.824219 L 336.5 57.640625 L 482.332031 335.347656 L 203.964844 481.53125 Z M 58.128906 203.824219 " clip-rule="nonzero"/></clipPath><clipPath id="0484382f35"><path d="M 58.128906 203.824219 L 336.5 57.640625 L 482.332031 335.347656 L 203.964844 481.53125 Z M 58.128906 203.824219 " clip-rule="nonzero"/></clipPath><clipPath id="1a562d66a5"><path d="M 216 194 L 278 194 L 278 295 L 216 295 Z M 216 194 " clip-rule="nonzero"/></clipPath><clipPath id="62c2e3d124"><path d="M 58.128906 203.824219 L 336.5 57.640625 L 482.332031 335.347656 L 203.964844 481.53125 Z M 58.128906 203.824219 " clip-rule="nonzero"/></clipPath><clipPath id="73c316a118"><path d="M 58.128906 203.824219 L 336.5 57.640625 L 482.332031 335.347656 L 203.964844 481.53125 Z M 58.128906 203.824219 " clip-rule="nonzero"/></clipPath><clipPath id="a7b0c9a0dc"><path d="M 58.128906 203.824219 L 336.5 57.640625 L 482.332031 335.347656 L 203.964844 481.53125 Z M 58.128906 203.824219 " clip-rule="nonzero"/></clipPath><clipPath id="6cb4f8154b"><path d="M 233 78 L 375 78 L 375 235 L 233 235 Z M 233 78 " clip-rule="nonzero"/></clipPath><clipPath id="7ac7b057d5"><path d="M 58.128906 203.824219 L 336.5 57.640625 L 482.332031 335.347656 L 203.964844 481.53125 Z M 58.128906 203.824219 " clip-rule="nonzero"/></clipPath><clipPath id="31e3c7a5b1"><path d="M 58.128906 203.824219 L 336.5 57.640625 L 482.332031 335.347656 L 203.964844 481.53125 Z M 58.128906 203.824219 " clip-rule="nonzero"/></clipPath><clipPath id="d146a8a5c0"><path d="M 58.128906 203.824219 L 336.5 57.640625 L 482.332031 335.347656 L 203.964844 481.53125 Z M 58.128906 203.824219 " clip-rule="nonzero"/></clipPath><clipPath id="be4d084315"><path d="M 205.429688 126.46875 L 336.46875 57.65625 L 410.675781 198.964844 L 279.636719 267.777344 Z M 205.429688 126.46875 " clip-rule="nonzero"/></clipPath><clipPath id="aae4601d5c"><path d="M 205.429688 126.46875 L 336.40625 57.691406 L 410.609375 198.996094 L 279.636719 267.777344 Z M 205.429688 126.46875 " clip-rule="nonzero"/></clipPath><clipPath id="4eca07bcab"><path d="M 237 152 L 356 152 L 356 238 L 237 238 Z M 237 152 " clip-rule="nonzero"/></clipPath><clipPath id="981dfc5c55"><path d="M 58.128906 203.824219 L 336.5 57.640625 L 482.332031 335.347656 L 203.964844 481.53125 Z M 58.128906 203.824219 " clip-rule="nonzero"/></clipPath><clipPath id="5de61d6f7e"><path d="M 58.128906 203.824219 L 336.5 57.640625 L 482.332031 335.347656 L 203.964844 481.53125 Z M 58.128906 203.824219 " clip-rule="nonzero"/></clipPath><clipPath id="ef95532ee9"><path d="M 58.128906 203.824219 L 336.5 57.640625 L 482.332031 335.347656 L 203.964844 481.53125 Z M 58.128906 203.824219 " clip-rule="nonzero"/></clipPath><clipPath id="298489d270"><path d="M 317 159 L 361 159 L 361 186 L 317 186 Z M 317 159 " clip-rule="nonzero"/></clipPath><clipPath id="c5a5f7522d"><path d="M 58.128906 203.824219 L 336.5 57.640625 L 482.332031 335.347656 L 203.964844 481.53125 Z M 58.128906 203.824219 " clip-rule="nonzero"/></clipPath><clipPath id="5356b8c0f5"><path d="M 58.128906 203.824219 L 336.5 57.640625 L 482.332031 335.347656 L 203.964844 481.53125 Z M 58.128906 203.824219 " clip-rule="nonzero"/></clipPath><clipPath id="a0fa3d9720"><path d="M 58.128906 203.824219 L 336.5 57.640625 L 482.332031 335.347656 L 203.964844 481.53125 Z M 58.128906 203.824219 " clip-rule="nonzero"/></clipPath><clipPath id="77b8d2f9b0"><path d="M 298 109 L 369 109 L 369 141 L 298 141 Z M 298 109 " clip-rule="nonzero"/></clipPath><clipPath id="93facaf34b"><path d="M 58.128906 203.824219 L 336.5 57.640625 L 482.332031 335.347656 L 203.964844 481.53125 Z M 58.128906 203.824219 " clip-rule="nonzero"/></clipPath><clipPath id="934c14a125"><path d="M 58.128906 203.824219 L 336.5 57.640625 L 482.332031 335.347656 L 203.964844 481.53125 Z M 58.128906 203.824219 " clip-rule="nonzero"/></clipPath><clipPath id="980612070d"><path d="M 58.128906 203.824219 L 336.5 57.640625 L 482.332031 335.347656 L 203.964844 481.53125 Z M 58.128906 203.824219 " clip-rule="nonzero"/></clipPath><clipPath id="51f3a786d6"><path d="M 336 188 L 341 188 L 341 194 L 336 194 Z M 336 188 " clip-rule="nonzero"/></clipPath><clipPath id="bedb7fc391"><path d="M 58.128906 203.824219 L 336.5 57.640625 L 482.332031 335.347656 L 203.964844 481.53125 Z M 58.128906 203.824219 " clip-rule="nonzero"/></clipPath><clipPath id="e6bfabfbf1"><path d="M 58.128906 203.824219 L 336.5 57.640625 L 482.332031 335.347656 L 203.964844 481.53125 Z M 58.128906 203.824219 " clip-rule="nonzero"/></clipPath><clipPath id="40c5309a1f"><path d="M 58.128906 203.824219 L 336.5 57.640625 L 482.332031 335.347656 L 203.964844 481.53125 Z M 58.128906 203.824219 " clip-rule="nonzero"/></clipPath><clipPath id="ef5935eb6c"><path d="M 261 84 L 369 84 L 369 163 L 261 163 Z M 261 84 " clip-rule="nonzero"/></clipPath><clipPath id="57d51c1a36"><path d="M 58.128906 203.824219 L 336.5 57.640625 L 482.332031 335.347656 L 203.964844 481.53125 Z M 58.128906 203.824219 " clip-rule="nonzero"/></clipPath><clipPath id="2163a9f97f"><path d="M 58.128906 203.824219 L 336.5 57.640625 L 482.332031 335.347656 L 203.964844 481.53125 Z M 58.128906 203.824219 " clip-rule="nonzero"/></clipPath><clipPath id="080a9e7904"><path d="M 58.128906 203.824219 L 336.5 57.640625 L 482.332031 335.347656 L 203.964844 481.53125 Z M 58.128906 203.824219 " clip-rule="nonzero"/></clipPath><clipPath id="3f5974a33c"><path d="M 267 133 L 296 133 L 296 162 L 267 162 Z M 267 133 " clip-rule="nonzero"/></clipPath><clipPath id="b6b67f982f"><path d="M 58.128906 203.824219 L 336.5 57.640625 L 482.332031 335.347656 L 203.964844 481.53125 Z M 58.128906 203.824219 " clip-rule="nonzero"/></clipPath><clipPath id="23af57e303"><path d="M 58.128906 203.824219 L 336.5 57.640625 L 482.332031 335.347656 L 203.964844 481.53125 Z M 58.128906 203.824219 " clip-rule="nonzero"/></clipPath><clipPath id="c12518f3d8"><path d="M 58.128906 203.824219 L 336.5 57.640625 L 482.332031 335.347656 L 203.964844 481.53125 Z M 58.128906 203.824219 " clip-rule="nonzero"/></clipPath><clipPath id="f7c8f29e0c"><path d="M 243 157 L 278 157 L 278 180 L 243 180 Z M 243 157 " clip-rule="nonzero"/></clipPath><clipPath id="afbf5e8a4e"><path d="M 58.128906 203.824219 L 336.5 57.640625 L 482.332031 335.347656 L 203.964844 481.53125 Z M 58.128906 203.824219 " clip-rule="nonzero"/></clipPath><clipPath id="503579edbe"><path d="M 58.128906 203.824219 L 336.5 57.640625 L 482.332031 335.347656 L 203.964844 481.53125 Z M 58.128906 203.824219 " clip-rule="nonzero"/></clipPath><clipPath id="9d4e36ea90"><path d="M 58.128906 203.824219 L 336.5 57.640625 L 482.332031 335.347656 L 203.964844 481.53125 Z M 58.128906 203.824219 " clip-rule="nonzero"/></clipPath><clipPath id="beee9e0a7c"><path d="M 199 196 L 337 196 L 337 467 L 199 467 Z M 199 196 " clip-rule="nonzero"/></clipPath><clipPath id="1ec32f6fe0"><path d="M 58.128906 203.824219 L 336.5 57.640625 L 482.332031 335.347656 L 203.964844 481.53125 Z M 58.128906 203.824219 " clip-rule="nonzero"/></clipPath><clipPath id="57771e427d"><path d="M 58.128906 203.824219 L 336.5 57.640625 L 482.332031 335.347656 L 203.964844 481.53125 Z M 58.128906 203.824219 " clip-rule="nonzero"/></clipPath><clipPath id="baa55617a4"><path d="M 58.128906 203.824219 L 336.5 57.640625 L 482.332031 335.347656 L 203.964844 481.53125 Z M 58.128906 203.824219 " clip-rule="nonzero"/></clipPath><clipPath id="5ab1998917"><path d="M 252 222 L 291 222 L 291 271 L 252 271 Z M 252 222 " clip-rule="nonzero"/></clipPath><clipPath id="ad846bb0dc"><path d="M 58.128906 203.824219 L 336.5 57.640625 L 482.332031 335.347656 L 203.964844 481.53125 Z M 58.128906 203.824219 " clip-rule="nonzero"/></clipPath><clipPath id="c66a298d94"><path d="M 58.128906 203.824219 L 336.5 57.640625 L 482.332031 335.347656 L 203.964844 481.53125 Z M 58.128906 203.824219 " clip-rule="nonzero"/></clipPath><clipPath id="d9ccc72f16"><path d="M 58.128906 203.824219 L 336.5 57.640625 L 482.332031 335.347656 L 203.964844 481.53125 Z M 58.128906 203.824219 " clip-rule="nonzero"/></clipPath><clipPath id="f6fd01c497"><path d="M 256 226 L 289 226 L 289 267 L 256 267 Z M 256 226 " clip-rule="nonzero"/></clipPath><clipPath id="6c8bb865e2"><path d="M 58.128906 203.824219 L 336.5 57.640625 L 482.332031 335.347656 L 203.964844 481.53125 Z M 58.128906 203.824219 " clip-rule="nonzero"/></clipPath><clipPath id="9c7e0882e1"><path d="M 58.128906 203.824219 L 336.5 57.640625 L 482.332031 335.347656 L 203.964844 481.53125 Z M 58.128906 203.824219 " clip-rule="nonzero"/></clipPath><clipPath id="9d642c89df"><path d="M 58.128906 203.824219 L 336.5 57.640625 L 482.332031 335.347656 L 203.964844 481.53125 Z M 58.128906 203.824219 " clip-rule="nonzero"/></clipPath><clipPath id="17845b7501"><path d="M 226 186 L 289 186 L 289 227 L 226 227 Z M 226 186 " clip-rule="nonzero"/></clipPath><clipPath id="55e93e3eb5"><path d="M 58.128906 203.824219 L 336.5 57.640625 L 482.332031 335.347656 L 203.964844 481.53125 Z M 58.128906 203.824219 " clip-rule="nonzero"/></clipPath><clipPath id="42e6139768"><path d="M 58.128906 203.824219 L 336.5 57.640625 L 482.332031 335.347656 L 203.964844 481.53125 Z M 58.128906 203.824219 " clip-rule="nonzero"/></clipPath><clipPath id="d3b881c59a"><path d="M 58.128906 203.824219 L 336.5 57.640625 L 482.332031 335.347656 L 203.964844 481.53125 Z M 58.128906 203.824219 " clip-rule="nonzero"/></clipPath><clipPath id="071ed74d68"><path d="M 234 194 L 281 194 L 281 219 L 234 219 Z M 234 194 " clip-rule="nonzero"/></clipPath><clipPath id="780a7441e4"><path d="M 58.128906 203.824219 L 336.5 57.640625 L 482.332031 335.347656 L 203.964844 481.53125 Z M 58.128906 203.824219 " clip-rule="nonzero"/></clipPath><clipPath id="c0b21e6743"><path d="M 58.128906 203.824219 L 336.5 57.640625 L 482.332031 335.347656 L 203.964844 481.53125 Z M 58.128906 203.824219 " clip-rule="nonzero"/></clipPath><clipPath id="15ad30917f"><path d="M 58.128906 203.824219 L 336.5 57.640625 L 482.332031 335.347656 L 203.964844 481.53125 Z M 58.128906 203.824219 " clip-rule="nonzero"/></clipPath><clipPath id="6b8f177c36"><path d="M 204 215 L 323 215 L 323 458 L 204 458 Z M 204 215 " clip-rule="nonzero"/></clipPath><clipPath id="04e1b53ec0"><path d="M 58.128906 203.824219 L 336.5 57.640625 L 482.332031 335.347656 L 203.964844 481.53125 Z M 58.128906 203.824219 " clip-rule="nonzero"/></clipPath><clipPath id="31c9a050ce"><path d="M 58.128906 203.824219 L 336.5 57.640625 L 482.332031 335.347656 L 203.964844 481.53125 Z M 58.128906 203.824219 " clip-rule="nonzero"/></clipPath><clipPath id="4322bf9e79"><path d="M 58.128906 203.824219 L 336.5 57.640625 L 482.332031 335.347656 L 203.964844 481.53125 Z M 58.128906 203.824219 " clip-rule="nonzero"/></clipPath><clipPath id="c630de8556"><path d="M 220 212 L 255 212 L 255 290 L 220 290 Z M 220 212 " clip-rule="nonzero"/></clipPath><clipPath id="516525455f"><path d="M 58.128906 203.824219 L 336.5 57.640625 L 482.332031 335.347656 L 203.964844 481.53125 Z M 58.128906 203.824219 " clip-rule="nonzero"/></clipPath><clipPath id="5f89ea95b8"><path d="M 58.128906 203.824219 L 336.5 57.640625 L 482.332031 335.347656 L 203.964844 481.53125 Z M 58.128906 203.824219 " clip-rule="nonzero"/></clipPath><clipPath id="6d3d707188"><path d="M 58.128906 203.824219 L 336.5 57.640625 L 482.332031 335.347656 L 203.964844 481.53125 Z M 58.128906 203.824219 " clip-rule="nonzero"/></clipPath></defs><g clip-path="url(#a4b16d5114)"><g clip-path="url(#86c92fcab1)"><g clip-path="url(#f39c9af4c1)"><g clip-path="url(#d372b20633)"><g clip-path="url(#1ea66b3549)"><g clip-path="url(#e6fe501d09)"><path fill="#211d1d" d="M 342.289062 234.179688 L 304.578125 292.546875 L 227.746094 464.773438 C 219.386719 485.171875 186.25 469.660156 193.9375 450.910156 L 296.054688 201.792969 L 342.289062 234.179688 " fill-opacity="1" fill-rule="evenodd"/></g></g></g></g></g></g><g clip-path="url(#8bdc9d8a8c)"><g clip-path="url(#cec94fb0bd)"><g clip-path="url(#f7c1cdf2b8)"><g clip-path="url(#0484382f35)"><path fill="#211d1d" d="M 249.613281 186.449219 L 213.078125 275.570312 C 203.417969 299.140625 236.617188 314.015625 246.71875 289.367188 L 285.183594 195.535156 L 249.613281 186.449219 " fill-opacity="1" fill-rule="evenodd"/></g></g></g></g><g clip-path="url(#1a562d66a5)"><g clip-path="url(#62c2e3d124)"><g clip-path="url(#73c316a118)"><g clip-path="url(#a7b0c9a0dc)"><path fill="#464649" d="M 277.652344 201.414062 L 242.335938 287.570312 C 240.054688 293.136719 233.597656 297.050781 225.414062 293.539062 C 217.160156 290 215.382812 282.441406 217.460938 277.367188 L 251.351562 194.691406 L 277.652344 201.414062 " fill-opacity="1" fill-rule="evenodd"/></g></g></g></g><g clip-path="url(#6cb4f8154b)"><g clip-path="url(#7ac7b057d5)"><g clip-path="url(#31e3c7a5b1)"><g clip-path="url(#d146a8a5c0)"><g clip-path="url(#be4d084315)"><g clip-path="url(#aae4601d5c)"><path fill="#211d1d" d="M 366.304688 174.289062 L 342.199219 234.316406 L 297.859375 228.503906 C 299.832031 219.546875 301.386719 212.464844 296.363281 209.917969 L 240.851562 189.363281 C 225.0625 179.949219 234.792969 139.296875 257.074219 149.789062 L 281.851562 89.339844 C 302.320312 62.28125 356.132812 86.949219 374.339844 130.636719 L 368.230469 146.292969 L 361.230469 148.78125 L 358.714844 143.300781 L 355.300781 146.851562 L 352.273438 140.828125 L 349.398438 144.347656 L 347.015625 138.96875 L 343.546875 142.667969 L 340.167969 136.207031 L 336.671875 139.492188 L 334.53125 134.871094 L 331.96875 138.011719 L 329.414062 133.105469 L 325.558594 135.945312 L 322.976562 130.628906 L 319.214844 133.996094 L 316.679688 128.246094 L 316.21875 126.769531 L 315.605469 126.535156 L 301.507812 162.121094 L 313.753906 166.511719 L 319.730469 154.144531 L 322.898438 151.050781 L 325.117188 156.675781 L 328.765625 153.46875 L 331.472656 159.667969 L 334.578125 156.445312 L 336.667969 161.957031 L 340.375 158.605469 L 343.445312 165.058594 L 347.132812 162.328125 L 349.019531 167.070312 L 351.785156 164.191406 L 354.078125 169.253906 L 358.132812 166.785156 L 360.425781 172.25 L 364.066406 168.199219 L 366.304688 174.289062 " fill-opacity="1" fill-rule="nonzero"/></g></g></g></g></g></g><g clip-path="url(#4eca07bcab)"><g clip-path="url(#981dfc5c55)"><g clip-path="url(#5de61d6f7e)"><g clip-path="url(#ef95532ee9)"><path fill="#d71a37" d="M 355.8125 189.335938 L 335.800781 237.296875 L 304.1875 231.097656 C 306.328125 217.855469 309.082031 210.230469 304 206.664062 L 241.480469 183.628906 C 232.578125 177.71875 239.664062 153.472656 252.660156 152.617188 L 355.8125 189.335938 " fill-opacity="1" fill-rule="evenodd"/></g></g></g></g><g clip-path="url(#298489d270)"><g clip-path="url(#c5a5f7522d)"><g clip-path="url(#5356b8c0f5)"><g clip-path="url(#a0fa3d9720)"><path fill="#ffffff" d="M 360.851562 175.492188 L 320.925781 159.707031 L 317.351562 169.351562 L 357.472656 185.285156 L 360.851562 175.492188 " fill-opacity="1" fill-rule="evenodd"/></g></g></g></g><g clip-path="url(#77b8d2f9b0)"><g clip-path="url(#93facaf34b)"><g clip-path="url(#934c14a125)"><g clip-path="url(#980612070d)"><path fill="#ffffff" d="M 368.636719 129.953125 L 310.839844 110.136719 C 301.859375 107.019531 293.671875 121.925781 301.625 125.695312 C 305.15625 127.367188 309.097656 127.78125 314.023438 123.210938 L 365.363281 140.695312 L 368.636719 129.953125 " fill-opacity="1" fill-rule="evenodd"/></g></g></g></g><g clip-path="url(#51f3a786d6)"><g clip-path="url(#bedb7fc391)"><g clip-path="url(#e6bfabfbf1)"><g clip-path="url(#40c5309a1f)"><path fill="#211d1d" d="M 336.554688 189.570312 C 337.015625 188.445312 338.207031 188.140625 339.214844 188.882812 C 340.222656 189.632812 340.667969 191.148438 340.203125 192.273438 C 339.746094 193.398438 338.554688 193.707031 337.542969 192.960938 C 336.535156 192.210938 336.09375 190.695312 336.554688 189.570312 " fill-opacity="1" fill-rule="nonzero"/></g></g></g></g><g clip-path="url(#ef5935eb6c)"><g clip-path="url(#57d51c1a36)"><g clip-path="url(#2163a9f97f)"><g clip-path="url(#080a9e7904)"><path fill="#464649" d="M 368.71875 126.957031 C 341.328125 86.789062 310.542969 74.847656 285.378906 93.621094 L 261.496094 150.742188 L 265.1875 152.148438 L 296.085938 162.746094 L 310.339844 128.660156 C 310.339844 128.660156 305.027344 131.648438 299.03125 127.707031 C 289.570312 121.484375 294.464844 104.433594 309.796875 105.910156 L 368.71875 126.957031 " fill-opacity="1" fill-rule="evenodd"/></g></g></g></g><g clip-path="url(#3f5974a33c)"><g clip-path="url(#b6b67f982f)"><g clip-path="url(#23af57e303)"><g clip-path="url(#c12518f3d8)"><path fill="#ffffff" d="M 267.597656 152.976562 L 273.914062 155.230469 C 278.277344 144.300781 282.027344 139.089844 286.472656 140.898438 C 290.839844 142.769531 291.546875 147.378906 286.769531 159.332031 L 291.789062 161.269531 C 297.894531 147.0625 297.433594 138.238281 287.78125 134.277344 C 281.652344 131.570312 274.457031 135.808594 267.597656 152.976562 " fill-opacity="1" fill-rule="evenodd"/></g></g></g></g><g clip-path="url(#f7c8f29e0c)"><g clip-path="url(#afbf5e8a4e)"><g clip-path="url(#503579edbe)"><g clip-path="url(#9d4e36ea90)"><path fill="#ffffff" d="M 277.304688 166.246094 L 252.507812 157.585938 C 245.222656 160.578125 242.210938 167.929688 243.46875 179.644531 C 245.816406 168.539062 249.5 162.671875 254.515625 162.046875 L 277.304688 166.246094 " fill-opacity="1" fill-rule="evenodd"/></g></g></g></g><g clip-path="url(#beee9e0a7c)"><g clip-path="url(#1ec32f6fe0)"><g clip-path="url(#57771e427d)"><g clip-path="url(#baa55617a4)"><path fill="#d71a37" d="M 304.511719 196.042969 L 199.457031 452.335938 C 201.640625 467.292969 209.394531 470.472656 222.714844 461.875 L 299.011719 288.59375 L 336.246094 236.226562 L 304.511719 196.042969 " fill-opacity="1" fill-rule="evenodd"/></g></g></g></g><g clip-path="url(#5ab1998917)"><g clip-path="url(#ad846bb0dc)"><g clip-path="url(#c66a298d94)"><g clip-path="url(#d9ccc72f16)"><path fill="#211d1d" d="M 267.292969 222.800781 L 290.289062 230.75 L 273.957031 270.59375 L 267.332031 267.824219 C 251.542969 258.410156 244.554688 213.425781 266.835938 223.914062 L 267.292969 222.800781 " fill-opacity="1" fill-rule="nonzero"/></g></g></g></g><g clip-path="url(#f6fd01c497)"><g clip-path="url(#6c8bb865e2)"><g clip-path="url(#9c7e0882e1)"><g clip-path="url(#9d642c89df)"><path fill="#d71a37" d="M 262.425781 226.742188 L 288.171875 235.910156 C 288.882812 244.996094 284.675781 255.261719 275.546875 266.707031 L 271.222656 265.117188 C 262.320312 259.207031 249.425781 227.597656 262.425781 226.742188 " fill-opacity="1" fill-rule="evenodd"/></g></g></g></g><g clip-path="url(#17845b7501)"><g clip-path="url(#55e93e3eb5)"><g clip-path="url(#42e6139768)"><g clip-path="url(#d3b881c59a)"><path fill="#211d1d" d="M 233.390625 186.949219 L 288.058594 209.367188 L 280.960938 226.679688 L 226.292969 204.261719 L 233.390625 186.949219 " fill-opacity="1" fill-rule="nonzero"/></g></g></g></g><g clip-path="url(#071ed74d68)"><g clip-path="url(#780a7441e4)"><g clip-path="url(#c0b21e6743)"><g clip-path="url(#15ad30917f)"><path fill="#b8bbb5" d="M 280.109375 212.691406 L 277.636719 218.734375 L 234.238281 200.9375 L 236.714844 194.898438 L 280.109375 212.691406 " fill-opacity="1" fill-rule="nonzero"/></g></g></g></g><g clip-path="url(#6b8f177c36)"><g clip-path="url(#04e1b53ec0)"><g clip-path="url(#31c9a050ce)"><g clip-path="url(#4322bf9e79)"><path fill="#211d1d" d="M 223.105469 442.90625 L 318.632812 215.894531 L 322.707031 217.5625 L 226.5625 444.574219 C 218.292969 464.742188 206.773438 457.101562 204.863281 452.175781 C 209.871094 453.320312 216.515625 458.980469 223.105469 442.90625 " fill-opacity="1" fill-rule="evenodd"/></g></g></g></g><g clip-path="url(#c630de8556)"><g clip-path="url(#516525455f)"><g clip-path="url(#5f89ea95b8)"><g clip-path="url(#6d3d707188)"><path fill="#211d1d" d="M 248.625 212.300781 L 221.59375 278.242188 C 219.621094 285.683594 222.214844 289.269531 229.367188 288.996094 C 225.734375 285.558594 225.105469 282.011719 227.476562 278.34375 L 254.160156 213.25 L 248.625 212.300781 " fill-opacity="1" fill-rule="evenodd"/></g></g></g></g></svg>